<svg width="364" height="253" viewBox="0 0 364 253" fill="none" xmlns="http://www.w3.org/2000/svg">
<g clip-path="url(#clip0_45_401)">
<path d="M128.97 44.0246C130.055 41.8394 131.791 40.0251 132.853 37.828C133.914 35.6309 134.121 32.6903 132.352 31.0086C130.85 29.5807 128.498 29.5607 126.702 28.5265C122.127 25.8915 122.132 17.5221 116.901 16.7989C114.358 16.4472 112.057 18.3538 110.519 20.4095C108.982 22.4652 107.757 24.864 105.625 26.2942C103.211 27.9132 100.091 27.9836 97.4109 29.1082C92.2723 31.2642 89.5783 36.8084 87.3257 41.9035C85.8746 45.1858 84.3902 48.726 85.0635 52.2508C83.6 53.1611 84.2522 55.6092 85.7131 56.5236C87.1739 57.438 89.0085 57.4177 90.6859 57.8138C94.2115 58.6462 97.0983 61.4514 98.4669 64.804C99.5335 67.4171 99.7516 70.2861 99.9575 73.1008C100.315 77.9849 100.672 82.8689 101.029 87.753C101.188 89.9259 101.396 92.2351 102.719 93.9664C104.043 95.6977 106.908 96.4232 108.395 94.8307C109.817 93.3087 109.177 90.8992 109.148 88.8173C109.119 86.7353 111.002 84.1428 112.777 85.232L113.404 83.812C117.459 82.3607 121.01 79.7721 123.631 76.356C126.253 72.9399 127.834 68.8411 128.185 64.5501C128.639 57.6386 125.887 50.2279 128.97 44.0246Z" fill="#E4E7EC"/>
<path d="M133.114 87.8516C133.505 87.4825 133.783 87.0093 133.915 86.4875C134.046 85.9658 134.025 85.4174 133.855 84.907C133.685 84.3966 133.372 83.9455 132.954 83.6069C132.536 83.2683 132.029 83.0563 131.495 82.9959L131.501 83.2305C130.738 83.6759 129.868 83.9046 128.984 83.8918C128.103 83.8779 127.227 84.0166 126.394 84.3018C125.979 84.4525 125.621 84.7249 125.364 85.0832C125.108 85.4416 124.966 85.8692 124.957 86.3097C125.006 86.6473 125.135 86.9683 125.334 87.2453C125.533 87.5224 125.796 87.7473 126.1 87.901C126.712 88.2022 127.369 88.4015 128.045 88.4912C129.786 88.8186 131.824 89.0664 133.114 87.8516Z" fill="#E4E7EC"/>
<path d="M167.073 44.1402C167.802 43.6444 168.422 43.0034 168.892 42.2575C169.12 41.8801 169.228 41.4426 169.203 41.0025C169.178 40.5624 169.02 40.1402 168.75 39.7914C168.201 39.3152 167.494 39.06 166.767 39.0755C164.794 38.9282 162.81 39.162 160.925 39.7642C162.861 41.4784 164.796 43.1927 166.732 44.907L167.073 44.1402Z" fill="#E4E7EC"/>
<path d="M157.392 48.5987C158.174 49.462 157.925 50.801 157.703 51.9446C157.482 53.0882 157.454 54.5173 158.438 55.1412C159.291 55.6819 160.488 55.2407 161.112 54.4467C161.669 53.5998 162.009 52.6284 162.101 51.6187C162.407 50.1512 162.546 48.6536 162.514 47.1549C162.477 45.6449 161.944 44.189 160.997 43.0117C160.325 42.2461 159.43 41.7098 158.438 41.4781C157.446 41.2464 156.406 41.3309 155.464 41.7197L156.364 41.6753C155.71 42.5145 155.214 43.4654 154.901 44.4818C154.751 44.9924 154.74 45.5339 154.87 46.05C155 46.5661 155.266 47.038 155.64 47.4166C156.174 47.8807 156.917 48.0748 157.392 48.5987Z" fill="#E4E7EC"/>
<path d="M201.521 34.1209L201.681 33.6287C201.012 34.0154 200.497 34.62 200.221 35.3413C199.945 36.0625 199.925 36.8567 200.164 37.5908C200.679 37.1853 201.076 36.65 201.314 36.04C201.553 35.4301 201.624 34.7676 201.521 34.1209Z" fill="#E4E7EC"/>
<path d="M192.828 41.1664C193.68 40.6844 194.406 40.0097 194.95 39.1963C195.494 38.383 195.839 37.4536 195.959 36.4828C196.051 35.8791 195.981 35.2618 195.756 34.6941C195.641 34.4122 195.457 34.1632 195.222 33.9693C194.987 33.7753 194.708 33.6424 194.409 33.5824L194.045 34.1554C193.523 33.7061 192.645 34.1682 192.426 34.8211C192.284 35.499 192.343 36.2035 192.595 36.8485C192.847 37.4974 192.835 38.2189 192.563 38.8595C192.27 39.2362 191.939 39.583 191.577 39.8946C191.401 40.0555 191.285 40.2728 191.251 40.5094C191.216 40.746 191.265 40.9872 191.389 41.1917C191.732 41.583 192.373 41.4188 192.828 41.1664Z" fill="#E4E7EC"/>
<path d="M189.122 37.9654C189.434 37.4047 189.581 36.7673 189.546 36.1267L188.749 35.877C188.24 36.0833 187.789 36.4098 187.433 36.8285C187.326 36.9367 187.243 37.0673 187.191 37.2112C187.14 37.355 187.121 37.5085 187.136 37.6605C187.151 37.8125 187.199 37.9594 187.277 38.0907C187.355 38.2219 187.462 38.3342 187.588 38.4196C187.715 38.5049 187.859 38.5612 188.01 38.5844C188.161 38.6076 188.316 38.5971 188.462 38.5537C188.609 38.5103 188.744 38.4351 188.858 38.3334C188.972 38.2317 189.062 38.106 189.122 37.9654Z" fill="#E4E7EC"/>
<path d="M228.054 33.9363C228.126 33.9966 228.197 34.0586 228.269 34.1195C228.333 34.1061 228.393 34.0822 228.458 34.0743L228.054 33.9363Z" fill="#E4E7EC"/>
<path d="M226.777 40.9235C227.509 40.3322 228.24 39.7409 228.971 39.1496C229.36 38.8748 229.691 38.5269 229.946 38.1253C230.12 37.7452 230.196 37.3271 230.165 36.91C230.134 36.4929 229.998 36.0904 229.769 35.7401C229.365 35.1191 228.857 34.5711 228.27 34.1194C227.624 34.2722 227.056 34.6565 226.675 35.1994C226.293 35.7423 226.124 36.4061 226.2 37.0652C226.332 37.9036 226.859 38.8002 226.429 39.532C226.261 39.817 225.973 40.011 225.78 40.2794C225.587 40.5477 225.525 40.975 225.79 41.1724C226.084 41.3914 226.492 41.1543 226.777 40.9235Z" fill="#E4E7EC"/>
<path d="M228.377 44.5432C228.649 44.5578 228.92 44.5137 229.174 44.414C229.427 44.3143 229.656 44.1613 229.845 43.9654C230.823 43.1648 231.678 42.2256 232.384 41.1777C230.738 41.6987 229.093 42.2196 227.447 42.7405L227.96 43.3402C227.505 43.6374 227.842 44.4409 228.377 44.5432Z" fill="#E4E7EC"/>
<path d="M232.988 47.9286C233.089 48.1851 233.271 48.4017 233.506 48.5452C233.741 48.6887 234.017 48.7513 234.291 48.7234C234.564 48.687 234.826 48.5913 235.057 48.4428C235.289 48.2944 235.486 48.0969 235.633 47.8643C235.884 47.4957 236.031 47.0669 236.059 46.6224C236.088 46.1779 235.998 45.7338 235.797 45.336C235.597 44.9382 235.293 44.6012 234.919 44.3597C234.544 44.1183 234.112 43.9813 233.667 43.9629L234.121 44.6567C234.237 45.8409 232.626 46.7951 232.988 47.9286Z" fill="#E4E7EC"/>
<path d="M264.945 60.8984C265.39 61.2303 265.931 61.4091 266.486 61.4077C267.041 61.4064 267.581 61.2251 268.025 60.8911C268.312 60.6456 268.546 60.3434 268.711 60.0035C268.876 59.6636 268.97 59.2932 268.985 58.9155C269 58.5379 268.938 58.1611 268.801 57.8089C268.664 57.4566 268.455 57.1364 268.189 56.8683L267.348 57.3373C266.882 57.0379 266.318 56.9309 265.775 57.0388C265.231 57.1467 264.751 57.4611 264.435 57.9159C264.151 58.3925 264.047 58.9546 264.14 59.5012C264.234 60.0478 264.519 60.5432 264.945 60.8984Z" fill="#E4E7EC"/>
<path d="M274.718 62.0042C275.127 61.8854 275.499 61.6636 275.798 61.36C276.097 61.0564 276.313 60.6812 276.425 60.2703L274.791 60.0557C274.337 59.7126 273.808 59.4816 273.247 59.3815C272.966 59.3395 272.679 59.3952 272.434 59.5394C272.189 59.6837 272.001 59.9076 271.902 60.1738C271.867 60.4003 271.891 60.6318 271.971 60.8465C272.051 61.0611 272.185 61.2516 272.36 61.3999C272.668 61.6939 273.047 61.9039 273.46 62.0097C273.873 62.1155 274.306 62.1136 274.718 62.0042Z" fill="#E4E7EC"/>
<path d="M267.971 65.2691C268 65.5347 268.104 65.7867 268.27 65.9956C268.437 66.2045 268.66 66.3616 268.913 66.4486C269.189 66.5795 269.498 66.6245 269.8 66.5778C270.102 66.531 270.383 66.3947 270.607 66.1863C270.705 66.075 270.776 65.9418 270.813 65.7977C270.85 65.6536 270.851 65.5029 270.818 65.3579C270.785 65.2129 270.718 65.078 270.622 64.9642C270.526 64.8505 270.404 64.7613 270.267 64.7039L269.042 64.4812C268.569 64.2362 267.963 64.7363 267.971 65.2691Z" fill="#E4E7EC"/>
<path d="M196.88 73.8801L195.931 73.0146C196.184 73.366 196.507 73.6608 196.88 73.8801Z" fill="#E4E7EC"/>
<path d="M189.637 68.7836C190.22 71.4935 193.141 73.7012 195.792 72.8869L195.931 73.0146C195.087 71.8599 194.944 70.1515 195.141 68.6658C195.507 66.1199 196.509 63.7071 198.053 61.65C199.598 59.5929 201.636 57.9578 203.979 56.8955C204.621 56.6952 205.195 56.3214 205.638 55.8154C206.016 55.2632 205.875 54.3162 205.224 54.1602C204.87 54.1198 204.513 54.2023 204.213 54.394L199.287 56.8176C196.799 58.0417 194.261 59.3009 192.306 61.2676C190.352 63.2343 189.053 66.0736 189.637 68.7836Z" fill="#E4E7EC"/>
<path d="M110.112 161.969C105.521 158.684 100.494 156.058 95.1753 154.167C91.9063 153.005 88.3937 152.119 84.9876 152.779C83.1198 153.165 81.3694 153.986 79.8787 155.175C78.388 156.365 77.1991 157.889 76.4085 159.624C75.6467 161.371 75.2885 163.268 75.3603 165.173C75.4322 167.078 75.9323 168.942 76.8235 170.627C78.3942 173.569 81.1141 175.912 82.0235 179.121C82.6365 181.284 82.3461 183.587 82.051 185.815C81.448 190.37 80.8449 194.924 80.2419 199.479C79.693 203.625 79.158 207.94 80.4714 211.912C81.7849 215.883 85.533 219.384 89.6964 218.962L90.5214 218.9C87.7673 217.028 86.9954 213.153 87.8154 209.926C88.6355 206.7 90.7167 203.964 92.7488 201.326C98.7791 193.5 104.809 185.673 110.84 177.846C113.279 174.679 115.86 170.765 114.559 166.986C113.819 164.838 111.96 163.292 110.112 161.969Z" fill="#E4E7EC"/>
<path d="M69.0151 142.183C68.4044 141.976 67.7593 142.436 67.4002 142.971C67.11 143.546 66.769 144.094 66.3813 144.608C65.4419 145.576 63.73 145.384 62.7169 144.493C61.7037 143.603 61.2647 142.226 61.0681 140.892C60.8322 139.291 60.934 137.505 61.991 136.28C63.079 135.018 64.8674 134.68 66.513 134.418C68.2129 134.147 70.1173 133.921 71.5099 134.932C72.3871 135.569 72.8983 136.597 73.7109 137.315C74.5235 138.032 75.9689 138.304 76.5805 137.409C76.7405 137.092 76.8214 136.741 76.8163 136.386C76.8112 136.03 76.7202 135.682 76.5511 135.369C76.2073 134.747 76.0005 134.058 75.9445 133.349C75.9854 132.366 76.7757 131.584 77.5843 131.022C78.3928 130.46 79.306 129.974 79.8364 129.145C80.4889 128.124 80.4197 126.81 80.8244 125.669C81.8041 122.906 85.3004 121.677 86.3189 118.929C86.5643 118.35 86.5918 117.703 86.3965 117.106C85.9702 116.011 84.818 116.226 84.7473 114.888C84.6797 113.608 85.7479 112.353 86.8332 111.818C88.3297 111.081 90.0743 111.141 91.7419 111.096C93.4096 111.051 95.2062 110.83 96.4301 109.697C96.8262 109.289 97.1316 108.801 97.3264 108.267C97.5211 107.733 97.6008 107.164 97.5603 106.596C97.5197 106.029 97.3598 105.477 97.091 104.976C96.8222 104.475 96.4505 104.036 96.0004 103.688C95.0884 103.059 93.9356 102.84 93.0482 102.176C91.943 101.349 91.4198 99.9726 90.559 98.894C89.8429 98.0727 89.0235 97.3475 88.1212 96.7365C87.3825 96.1887 86.6439 95.6409 85.9053 95.093C84.57 94.1027 83.1806 93.0871 81.5558 92.7343C79.9309 92.3815 77.996 92.8807 77.1823 94.3301C76.8613 94.976 76.686 95.6845 76.6688 96.4055C76.5946 98.1031 76.6655 99.8039 76.8805 101.489C77.0146 102.846 77.1487 104.203 77.2828 105.56C77.403 106.776 77.274 108.38 76.0927 108.695C73.4722 109.396 74.3565 105.523 73.7753 104.336C72.8856 102.52 68.7982 101.648 67.0509 100.891C65.9596 100.418 64.8079 99.8965 64.149 98.9069C63.3288 97.6751 63.4972 95.9987 64.1403 94.666C64.7834 93.3334 65.8313 92.2487 66.7832 91.1156C67.7536 89.9607 68.6372 88.736 69.5198 87.5127C70.5434 86.0939 71.5671 84.6751 72.5907 83.2563C73.9035 81.4366 75.2837 79.2158 74.5379 77.0998C74.3763 76.8167 74.1347 76.5875 73.8434 76.4411C73.5521 76.2946 73.2241 76.2373 72.9003 76.2763C72.5766 76.3153 72.2716 76.4489 72.0235 76.6604C71.7753 76.8719 71.5952 77.1519 71.5055 77.4652C71.1786 78.6076 72.0506 80.0662 71.2165 80.9127C70.9308 81.1428 70.5732 81.265 70.2064 81.2582C69.8395 81.2513 69.4868 81.1157 69.2099 80.8752C68.6697 80.3765 68.2582 79.7546 68.0106 79.0625C67 76.8178 66.0155 74.5591 64.9781 72.3267C64.6502 71.6209 64.3079 70.4125 63.3142 70.5315C62.4514 70.6348 61.9855 71.8914 62.0155 72.621C62.0591 73.6825 62.6461 74.631 63.0947 75.5941C63.5433 76.5573 63.8571 77.7138 63.3645 78.6552C62.7408 79.8472 61.1612 80.115 59.816 80.0756C57.2805 79.9988 54.796 79.3436 52.5527 78.1599C52.4941 79.4056 52.4354 80.6513 52.3768 81.8969C50.5913 81.1499 48.8058 80.4029 47.0203 79.6559C46.6735 79.5108 46.3267 79.3657 45.9799 79.2207C44.4738 78.5905 42.9658 77.9597 41.4152 77.4481C40.535 77.1577 39.6425 76.9063 38.7504 76.6549C38.208 76.5021 37.6657 76.3493 37.1234 76.1965C36.0532 75.8175 34.9181 75.6556 33.7846 75.7204C32.5937 75.87 31.5314 76.5093 30.43 76.9872C27.9728 78.0534 24.7945 76.9808 22.1612 76.9618C21.1167 75.4376 19.7065 74.1995 18.0596 73.3607C16.4127 72.5219 14.5818 72.1093 12.7341 72.1604C10.8865 72.2116 9.08117 72.725 7.48329 73.6536C5.88541 74.5823 4.54598 75.8965 3.5875 77.4762C3.12452 78.2766 2.71222 79.1052 2.35302 79.9572C1.99573 80.7575 1.63844 81.5578 1.28113 82.3581C0.756992 83.5322 0.221285 84.7691 0.324308 86.0506C0.427331 87.3322 1.4102 88.6413 2.69637 88.6297C-0.336531 90.0021 -0.96764 94.8047 1.60779 96.9135C2.32094 97.4974 3.19545 97.8793 3.8372 98.5408C4.32225 99.0408 4.64675 99.6743 4.76906 100.36C4.89137 101.046 4.80592 101.752 4.52366 102.389C4.2414 103.026 3.77521 103.563 3.18494 103.934C2.59466 104.304 1.90722 104.489 1.21083 104.466C3.00763 105.16 4.9868 105.224 6.82505 104.649C8.6633 104.073 10.252 102.892 11.3315 101.297C12.4326 99.5739 12.9112 97.4211 14.4091 96.0286C16.3928 94.1845 19.6694 94.3276 21.9573 95.7776C24.2453 97.2277 25.6926 99.6966 26.6882 102.215C27.9929 105.515 28.8278 109.286 31.6074 111.494C32.9513 112.561 34.6533 113.162 35.8413 114.4C37.5329 116.164 37.8256 118.826 37.7874 121.269C37.7493 123.712 37.4861 126.247 38.3764 128.523C39.2668 130.799 41.8194 132.67 44.1084 131.812C43.4526 133.757 43.4727 135.866 44.1654 137.798C44.8581 139.729 46.1828 141.371 47.925 142.456C47.508 139.871 47.091 137.286 46.674 134.7C48.7525 135.285 50.0996 137.3 50.8776 139.314C51.6556 141.327 52.0667 143.504 53.1944 145.345C54.9702 148.243 58.1859 149.492 61.4572 149.481C64.9911 149.469 66.3328 147.785 68.6616 145.304C69.1295 144.881 69.4846 144.348 69.6949 143.754C69.79 143.454 69.7735 143.13 69.6486 142.841C69.5237 142.553 69.2988 142.319 69.0151 142.183Z" fill="#E4E7EC"/>
<path d="M79.0217 142.054C77.0465 141.744 75.0712 141.433 73.0959 141.123C74.1314 141.745 75.1669 142.368 76.2024 142.99C77.0659 143.564 78.0047 144.016 78.9922 144.333C79.4875 144.489 80.0095 144.541 80.5258 144.487C81.0421 144.433 81.5417 144.273 81.9936 144.018L81.7408 143.534C81.3424 142.528 80.0917 142.222 79.0217 142.054Z" fill="#E4E7EC"/>
<path d="M77.6796 153.029L77.6933 152.994C77.5738 152.796 77.3978 152.639 77.1879 152.541C76.9781 152.444 76.7439 152.412 76.5155 152.449C76.0605 152.53 75.5953 152.538 75.1379 152.471C74.8474 152.358 74.5882 152.176 74.3822 151.942C74.1761 151.708 74.0291 151.428 73.9534 151.125C73.7571 150.535 73.699 149.903 73.4754 149.323C73.3139 148.863 73.0287 148.458 72.6513 148.15C72.2739 147.842 71.8188 147.644 71.3363 147.578C70.852 147.54 70.3719 147.693 69.9998 148.005C69.6277 148.317 69.3935 148.763 69.3478 149.247C69.3858 149.744 69.544 150.225 69.8089 150.649C70.0219 151.058 70.235 151.468 70.4481 151.878C70.6276 152.245 70.8342 152.598 71.066 152.935C71.4432 153.454 71.9363 153.878 72.5062 154.174C73.0761 154.469 73.7072 154.628 74.3492 154.637C74.9912 154.646 75.6265 154.506 76.2046 154.226C76.7828 153.947 77.2878 153.537 77.6796 153.029V153.029Z" fill="#E4E7EC"/>
<path d="M66.1437 47.9624C67.6478 48.8487 69.5312 49.4595 70.2459 51.0519L70.6582 51.185C70.2085 51.7435 69.7588 52.3021 69.3091 52.8606C68.7533 53.5508 68.1689 54.3199 68.1819 55.2058C68.1998 56.4259 69.374 57.3463 70.5604 57.634C71.8264 57.8944 73.1441 57.6753 74.2576 57.0193C75.3711 56.3632 76.201 55.3171 76.5863 54.0839C76.7274 53.5695 76.7856 53.0361 76.9093 52.5173C77.27 51.287 77.8143 50.1181 78.524 49.0501C82.5179 42.334 86.5118 35.6178 90.5058 28.9016C91.0032 28.0652 91.5159 27.0646 91.1419 26.1663C90.9422 25.7863 90.6334 25.4748 90.255 25.2719C89.8767 25.0689 89.4462 24.9839 89.0191 25.0277C88.1667 25.1312 87.3444 25.4076 86.6027 25.84C86.2732 25.2614 85.8081 24.7714 85.2474 24.4121C84.6867 24.0528 84.0471 23.8349 83.3836 23.7771C82.0568 23.6748 80.7221 23.7909 79.433 24.121C76.5205 24.5603 73.7121 25.5246 71.1445 26.9671C69.7398 27.6769 68.194 28.5534 67.7864 30.073C67.2851 31.9422 68.9007 33.8473 70.7607 34.3845C72.6207 34.9217 74.6061 34.4706 76.4886 34.0184C76.7014 34.9306 76.6128 35.8871 76.2359 36.7447C75.859 37.6022 75.2142 38.3146 74.3982 38.775C73.5821 39.2354 72.6388 39.4191 71.7095 39.2985C70.7802 39.1779 69.9151 38.7595 69.2437 38.1061C67.8943 36.7927 67.2334 34.5128 65.3807 34.1739C63.5339 33.836 62.066 35.8049 61.6584 37.6367C61.2597 39.6098 61.4759 41.6576 62.278 43.5039C63.08 45.3503 64.4292 46.9064 66.1437 47.9624Z" fill="#E4E7EC"/>
<path d="M89.3076 80.2795C88.4182 77.7738 87.2494 75.3762 85.823 73.1321C84.742 71.3577 83.4076 69.7505 81.8622 68.3612C80.4498 67.1422 78.8263 66.1916 77.0717 65.5563C75.3686 64.9407 73.4725 64.6366 71.7508 65.1979C70.029 65.7592 68.5642 67.3594 68.5991 69.1692C68.6377 71.1704 70.3894 72.7355 72.2151 73.5578C74.0408 74.38 76.0716 74.7379 77.7941 75.7587C78.9652 76.4686 79.9439 77.4552 80.6442 78.6318C81.3445 79.8084 81.7449 81.1389 81.8103 82.5064L82.2441 83.2234C81.2613 83.5488 80.3447 84.0476 79.5379 84.6961C79.1383 85.0257 78.8329 85.4549 78.6524 85.9403C78.4719 86.4257 78.4229 86.9501 78.5101 87.4606C78.8111 88.6724 80.049 89.3678 81.1683 89.9219C83.2367 90.9458 85.305 91.9697 87.3733 92.9936C86.3202 89.8548 89.7681 86.934 89.9588 83.6288C89.9662 82.4803 89.7448 81.3417 89.3076 80.2795Z" fill="#E4E7EC"/>
<path d="M37.3004 71.8048C38.5551 72.7787 40.4842 72.3231 41.6336 71.2271C42.7831 70.131 43.3429 68.5713 43.8649 67.0716C43.6743 68.556 43.6923 70.0597 43.9186 71.5391C44.0364 72.2789 44.3066 72.9861 44.7121 73.6161C45.1176 74.246 45.6495 74.785 46.2741 75.1989C46.8413 75.5098 47.4527 75.7323 48.0871 75.8586C51.0364 76.5295 54.1186 76.3094 56.9425 75.2262L56.9678 74.2611C55.5492 74.4228 54.4757 72.8676 54.382 71.4436C54.2884 70.0195 54.8054 68.6229 54.8509 67.1965C54.8963 65.7701 54.2086 64.1035 52.8035 63.8497C53.0494 64.3433 53.1391 64.9002 53.0606 65.446C52.9821 65.9919 52.7392 66.5009 52.3641 66.9054C51.989 67.3098 51.4996 67.5905 50.961 67.7101C50.4224 67.8297 49.8601 67.7825 49.349 67.5748C47.7227 66.9139 47.1319 64.9335 45.8751 63.7083C45.0985 63.0178 44.135 62.5722 43.1058 62.4275C42.0766 62.2828 41.0276 62.4455 40.0906 62.895C39.1655 63.3669 38.3539 64.0338 37.712 64.8498C37.07 65.6658 36.6129 66.6114 36.3724 67.6213C35.9907 69.0866 36.1039 70.8761 37.3004 71.8048Z" fill="#E4E7EC"/>
<path d="M76.0231 61.641L76.0813 61.5465C75.731 60.5355 74.6453 59.9427 73.5855 59.7923C72.5172 59.7218 71.4446 59.7573 70.3833 59.8981C69.3122 60.0366 68.2263 59.7975 67.3126 59.2221C66.5831 58.677 66.1675 57.8194 65.5843 57.1201C65.0011 56.4208 64.0573 55.8457 63.2102 56.1801C62.293 56.5421 62.0484 57.827 62.4934 58.7065C63.0178 59.5507 63.8087 60.1959 64.7411 60.5403C68.2721 62.1603 72.2453 62.548 76.0231 61.641Z" fill="#E4E7EC"/>
<path d="M63.9702 64.6714C63.6769 64.8862 63.478 65.206 63.4152 65.564C63.3524 65.922 63.4306 66.2904 63.6333 66.5921C63.836 66.8938 64.1476 67.1054 64.5029 67.1828C64.8582 67.2601 65.2296 67.1971 65.5395 67.007L65.8489 67.3122C66.2605 66.5757 66.4302 65.5889 65.9039 64.9293C65.6699 64.6558 65.3432 64.4783 64.9864 64.4307C64.6296 64.3831 64.2677 64.4688 63.9702 64.6714Z" fill="#E4E7EC"/>
<path d="M60.3493 67.3139C60.3538 67.0507 60.2785 66.7924 60.1333 66.5728C59.9882 66.3532 59.7799 66.1827 59.5359 66.0837C59.3698 66.0552 59.1996 66.0606 59.0357 66.0996C58.8718 66.1386 58.7174 66.2104 58.5819 66.3106C58.4465 66.4108 58.3327 66.5373 58.2475 66.6827C58.1623 66.828 58.1074 66.989 58.0861 67.1561C58.0605 67.4965 58.1053 67.8385 58.2176 68.1608C58.3298 68.4832 58.5072 68.7791 58.7386 69.0301C58.8733 69.2322 59.0493 69.4035 59.2551 69.5328C59.4608 69.662 59.6916 69.7461 59.9323 69.7797C60.4172 69.7955 60.9116 69.2887 60.715 68.8453L59.9745 68.8309C60.2027 68.3564 60.3303 67.84 60.3493 67.3139Z" fill="#E4E7EC"/>
<path d="M45.8696 59.7345C46.1415 59.9548 46.4135 60.1751 46.6854 60.3954C47.1564 60.8024 47.6652 61.1635 48.2049 61.4738C49.1489 61.9965 50.2591 62.1323 51.3013 61.8527C51.8158 61.706 52.2852 61.4322 52.666 61.0566C53.0469 60.6809 53.327 60.2155 53.4805 59.7032C53.8057 58.4786 53.2753 57.207 52.7563 56.0512C52.6378 55.7204 52.4424 55.4225 52.1861 55.1821C52.0547 55.0659 51.8872 54.9986 51.7119 54.9917C51.5366 54.9849 51.3644 55.0388 51.2243 55.1444C51.1228 55.2708 51.0552 55.4211 51.0281 55.5809C51.001 55.7408 51.0153 55.9049 51.0695 56.0577C51.1811 56.3622 51.2321 56.6856 51.2197 57.0096C51.1679 57.3292 50.8323 57.6313 50.5366 57.4991L50.4896 58.5872C49.0776 57.8728 48.331 55.9726 46.7596 55.7852C46.407 55.7431 46.0495 55.7987 45.7263 55.9458C45.4031 56.0929 45.1265 56.3259 44.9267 56.6194C44.7269 56.9129 44.6115 57.2556 44.5933 57.6101C44.575 57.9647 44.6545 58.3174 44.8231 58.6299C45.0958 59.0633 45.4515 59.4387 45.8696 59.7345Z" fill="#E4E7EC"/>
<path d="M42.5068 55.0375C42.8335 54.8137 43.0919 54.5041 43.2536 54.1428C43.4154 53.7815 43.4742 53.3825 43.4235 52.99C43.3844 52.7998 43.3039 52.6206 43.1877 52.4651C43.0714 52.3096 42.9223 52.1816 42.751 52.0902C42.5797 51.9989 42.3903 51.9463 42.1964 51.9364C42.0024 51.9264 41.8087 51.9593 41.6289 52.0327C41.2255 52.3341 40.9421 52.7688 40.8291 53.2594C40.457 54.3086 40.0849 55.3578 39.7128 56.4069L40.3382 55.9521C41.1119 55.7855 41.8476 55.4753 42.5068 55.0375Z" fill="#E4E7EC"/>
<path d="M49.7542 48.5989C49.8659 48.4581 49.9454 48.2944 49.9871 48.1196C50.0288 47.9447 50.0316 47.7629 49.9953 47.5868C49.9591 47.4108 49.8847 47.2448 49.7773 47.1006C49.67 46.9564 49.5324 46.8374 49.3741 46.7521L48.5921 46.679C48.4143 46.724 48.2495 46.81 48.111 46.9302C47.9724 47.0503 47.864 47.2013 47.7944 47.3709C47.7248 47.5405 47.6959 47.7241 47.7101 47.9068C47.7242 48.0896 47.7811 48.2665 47.876 48.4234C47.971 48.5802 48.1014 48.7127 48.2568 48.81C48.4122 48.9074 48.5883 48.967 48.7709 48.9841C48.9535 49.0012 49.1376 48.9752 49.3083 48.9083C49.4791 48.8414 49.6318 48.7354 49.7542 48.5989Z" fill="#E4E7EC"/>
<path d="M56.9486 49.8054C57.6783 50.1544 58.6021 50.4869 59.2369 49.9858C59.425 49.8157 59.5648 49.599 59.6424 49.3577C59.72 49.1163 59.7326 48.8588 59.6789 48.611C59.565 48.1168 59.3448 47.6532 59.0336 47.2525C58.0628 45.8593 56.8293 44.6688 55.4024 43.7478L55.0495 44.206C54.5567 45.4851 54.0809 46.9783 54.7683 48.1643C55.2317 48.9638 56.1147 49.4065 56.9486 49.8054Z" fill="#E4E7EC"/>
<path d="M62.3849 50.9437L63.7495 51.5607C63.6157 51.3276 63.4118 51.1426 63.1669 51.0318C62.922 50.9211 62.6483 50.8903 62.3849 50.9437Z" fill="#E4E7EC"/>
<path d="M58.7076 55.2352L58.0628 55.4475C57.5145 56.3481 57.7524 57.4997 58.0074 58.5227C58.1686 59.1694 58.5164 59.9651 59.1825 59.9357C59.8307 59.9071 60.1175 59.1215 60.2419 58.4851C60.4361 57.7936 60.4571 57.0651 60.3032 56.3636C60.2154 56.0163 60.0063 55.7118 59.7138 55.505C59.4213 55.2981 59.0644 55.2024 58.7076 55.2352Z" fill="#E4E7EC"/>
<path d="M48.4248 52.204L48.9019 52.396C49.0138 52.3801 49.1173 52.3277 49.1963 52.247C49.2754 52.1663 49.3256 52.0618 49.3392 51.9497C49.3527 51.8375 49.329 51.7241 49.2715 51.6268C49.214 51.5296 49.126 51.454 49.0212 51.4118C48.9164 51.3697 48.8006 51.3632 48.6917 51.3935C48.5829 51.4238 48.487 51.4891 48.4191 51.5793C48.3512 51.6696 48.3149 51.7797 48.3159 51.8927C48.317 52.0056 48.3553 52.115 48.4248 52.204Z" fill="#E4E7EC"/>
<path d="M72.478 88.6693C72.2469 88.6744 72.0204 88.7347 71.8173 88.8452C71.6142 88.9556 71.4405 89.113 71.3107 89.3042C71.1808 89.4953 71.0986 89.7148 71.0708 89.9442C71.043 90.1736 71.0706 90.4063 71.1511 90.6229C71.6196 91.6314 73.2332 91.6357 73.9503 90.7856C74.134 90.5442 74.2656 90.2673 74.3368 89.9724C74.408 89.6775 74.4173 89.3711 74.3641 89.0724C74.3109 88.7738 74.1963 88.4894 74.0276 88.2373C73.8589 87.9851 73.6397 87.7707 73.384 87.6074L72.478 88.6693Z" fill="#E4E7EC"/>
<path d="M95.7183 112.557C95.5307 112.607 95.3551 112.694 95.2018 112.813C95.0485 112.932 94.9206 113.081 94.8257 113.25C94.7308 113.419 94.6709 113.606 94.6493 113.799C94.6278 113.992 94.6452 114.187 94.7004 114.373L96.04 114.466C96.4936 114.238 96.9472 114.01 97.4009 113.783C97.3735 113.591 97.3078 113.406 97.2078 113.24C97.1077 113.074 96.9754 112.929 96.8185 112.815C96.6616 112.701 96.4835 112.619 96.2945 112.575C96.1055 112.53 95.9096 112.525 95.7183 112.557Z" fill="#E4E7EC"/>
<path d="M90.2732 114.214C89.8899 114.486 89.5823 114.851 89.3792 115.275C89.1762 115.698 89.0845 116.167 89.1126 116.636C89.1563 117.104 89.3477 117.546 89.6592 117.897C89.9708 118.249 90.3863 118.493 90.8456 118.593C91.3093 118.666 91.7832 118.56 92.1716 118.297C92.56 118.033 92.8339 117.632 92.9378 117.175C93.1644 115.79 91.6753 114.776 91.1401 113.478L90.2732 114.214Z" fill="#E4E7EC"/>
<path d="M142.302 105.067C142.443 106.107 141.506 107.017 141.471 108.066C141.43 109.31 142.785 110.278 144.024 110.156C144.64 110.05 145.222 109.802 145.725 109.432C146.228 109.063 146.639 108.582 146.925 108.027L146.951 107.91C146.348 107.228 145.744 106.546 145.14 105.864C144.399 105.026 143.613 104.073 143.642 102.955C143.656 102.404 143.873 101.87 143.861 101.319C143.832 100.922 143.744 100.532 143.599 100.162C143.435 99.6743 143.213 99.1248 142.725 98.9602C142.115 98.7542 141.499 99.2946 141.208 99.8688C140.946 100.398 140.819 100.984 140.837 101.575C140.856 102.165 141.02 102.742 141.314 103.254C141.667 103.853 142.208 104.379 142.302 105.067Z" fill="#E4E7EC"/>
<path d="M136.608 108.725C136.74 108.796 136.886 108.838 137.036 108.848C137.186 108.857 137.336 108.834 137.476 108.781C138.014 108.689 138.531 108.501 139.002 108.226C139.236 108.086 139.429 107.885 139.56 107.646C139.691 107.406 139.756 107.136 139.749 106.864C139.667 106.521 139.486 106.209 139.227 105.969C138.969 105.729 138.645 105.572 138.296 105.516C138.055 105.431 137.796 105.406 137.542 105.445C137.289 105.484 137.049 105.584 136.843 105.738C136.394 106.159 136.447 106.875 136.535 107.485L136.441 107.644C136.356 108.021 136.302 108.49 136.608 108.725Z" fill="#E4E7EC"/>
<path d="M231.638 153.158C231.508 152.833 231.377 152.509 231.247 152.184C231.068 152.625 231.134 153.076 231.638 153.158Z" fill="#E4E7EC"/>
<path d="M310.028 84.8853C308.352 83.068 307.326 82.0202 306.267 79.7676C305.692 78.5253 304.817 77.4448 303.722 76.6226C302.626 75.8004 301.344 75.2621 299.99 75.0557C296.514 74.4832 292.961 75.3898 289.442 75.2081C283.806 74.9171 278.724 71.8955 273.326 70.2474C270.304 69.4011 267.227 68.7667 264.116 68.3488C262.324 68.0655 260.532 67.7822 258.74 67.4989C252.865 66.5702 246.952 65.6388 241.005 65.7621C239.29 65.7977 236.902 65.2825 237.039 63.5737C237.21 61.4512 241.03 61.7299 241.765 59.7313C242.219 58.495 241.131 57.197 239.938 56.6379C238.745 56.0789 237.368 55.9108 236.285 55.1602C235.202 54.4097 234.608 52.6698 235.604 51.8065C232.845 53.2201 230.086 54.6336 227.328 56.0472C225.034 57.2224 222.472 58.7514 222.067 61.2956C220.685 61.6606 219.475 62.5004 218.651 63.6676C217.099 63.6757 215.879 65.1648 215.623 66.6946C215.368 68.2244 215.833 69.7727 216.293 71.254C215.73 70.1764 215.132 69.0577 214.14 68.3545C213.148 67.6513 211.638 67.5174 210.792 68.3909C209.924 69.2873 210.127 70.7912 210.741 71.8773C211.355 72.9633 212.298 73.8399 212.877 74.9448C214.687 78.3957 211.408 83.2541 207.529 82.8698C207.789 79.3063 208.049 75.7429 208.31 72.1795C208.475 71.0834 208.382 69.964 208.04 68.9096C207.617 67.8896 206.534 67.0518 205.456 67.2926C203.517 67.7258 203.683 70.5642 204.489 72.3788C205.295 74.1934 206.099 76.7168 204.453 77.8281C203.39 78.5457 201.949 78.1025 200.801 77.5297C199.653 76.9569 198.426 76.251 197.171 76.5186C195.916 76.7862 195.127 78.7031 196.236 79.3485C194.398 79.0292 192.559 78.7099 190.721 78.3906C190.63 78.9315 190.427 79.4472 190.124 79.9046C189.821 80.3619 189.425 80.7506 188.963 81.0456C188.5 81.3406 187.981 81.5353 187.438 81.6171C186.896 81.699 186.342 81.6661 185.813 81.5207C185.632 80.7732 185.452 80.0257 185.272 79.2781C185.003 79.2033 184.734 79.1284 184.465 79.0536C185.309 79.2886 183.988 82.8479 182.804 85.5668C181.211 85.3802 178.885 85.3442 178.619 84.8882C177.348 82.7045 177.499 77.5029 175.29 76.2743C174.182 75.6582 173.046 75.0967 171.882 74.59C171.271 74.2991 170.625 74.0871 169.96 73.959C168.603 73.7453 167.235 74.1659 165.926 74.5814C164.38 75.0723 162.797 75.5817 161.517 76.578C160.423 77.5262 159.486 78.6404 158.739 79.8799C156.21 83.6204 153.682 87.3608 151.153 91.1012C150.4 92.1001 149.807 93.2104 149.396 94.392C149.203 94.9796 149.138 95.6019 149.207 96.2167C149.277 96.8314 149.478 97.424 149.797 97.954C150.133 98.4735 150.634 98.8648 151.22 99.0649C151.806 99.265 152.442 99.2622 153.026 99.057C153.759 98.74 154.493 98.0213 155.219 98.3532C155.769 98.6046 155.907 99.3271 155.849 99.9289C155.709 100.518 155.698 101.13 155.817 101.724C156.148 102.661 157.419 102.987 158.327 102.582C159.209 102.1 159.87 101.296 160.17 100.338C161.045 98.0969 160.955 95.6174 161.173 93.222C161.391 90.8266 162.046 88.2646 163.935 86.7752C164.501 86.3294 165.332 86.008 165.914 86.432C166.132 86.63 166.283 86.8911 166.345 87.1789C166.407 87.4666 166.378 87.7667 166.262 88.0371C166.018 88.5722 165.701 89.0706 165.319 89.5176C164.673 90.4253 164.222 91.4562 163.992 92.546C163.762 93.6358 163.759 94.7612 163.983 95.8522L164.369 96.091C165.843 95.7091 167.814 96.3929 169.77 97.0488C168.35 97.4708 167.1 98.3302 166.198 99.5045C163.937 102.675 162.301 105.675 157.829 105.638C156.768 105.629 155.716 105.419 154.655 105.417C153.584 105.351 152.529 105.702 151.712 106.397C150.907 107.184 150.658 108.382 149.97 109.273C149.066 110.444 147.553 110.92 146.172 111.452C145.162 111.841 144.098 112.365 143.634 113.342C143.343 114.143 143.276 115.008 143.44 115.845C143.595 117.324 143.871 119.006 145.126 119.805C145.596 120.049 146.109 120.198 146.637 120.243C147.165 120.288 147.696 120.227 148.2 120.065C149.506 119.747 150.783 119.149 152.124 119.238C154.23 119.379 155.964 121.399 155.985 123.508C155.996 124.576 155.684 125.8 156.392 126.6C157.057 127.351 158.377 127.217 159.066 126.488C159.387 126.1 159.607 125.639 159.708 125.147C159.81 124.654 159.789 124.144 159.647 123.661C159.354 122.699 158.904 121.793 158.315 120.978C159.016 120.797 159.758 120.863 160.415 121.167C161.072 121.471 161.604 121.992 161.919 122.644C162.387 123.682 162.236 124.881 162.385 126.01C162.534 127.139 163.222 128.394 164.36 128.459C164.732 128.469 165.096 128.349 165.388 128.12C165.681 127.89 165.884 127.565 165.962 127.202C165.974 126.629 165.943 126.055 165.869 125.487C165.908 124.928 166.159 124.404 166.572 124.024C166.985 123.644 167.527 123.436 168.088 123.443C167.742 124.082 167.629 124.822 167.769 125.535C167.91 126.248 168.294 126.891 168.856 127.352C169.721 128.022 170.866 128.171 171.944 128.358C173.023 128.545 174.173 128.841 174.869 129.686C176.029 131.093 174.61 131.726 174.389 132.917C174.118 134.38 175.34 136.54 175.81 137.939C177.967 140.955 180.124 143.972 182.281 146.988C182.763 147.721 183.331 148.394 183.973 148.992C186.103 150.821 189.613 150.64 191.655 148.715C192.645 147.714 193.288 146.422 193.49 145.028C193.691 143.635 193.44 142.214 192.774 140.974C191.512 138.677 189.011 137.255 187.776 134.944C189.832 136.645 192.355 137.682 195.012 137.919C199.715 138.874 204.182 140.747 208.159 143.43C208.346 147.583 209.94 151.549 212.68 154.677C213.173 151.133 214.826 147.851 217.381 145.345C219.043 143.725 221.314 142.419 223.594 142.854C225.874 143.29 227.604 146.196 226.225 148.063C227.381 148.149 228.536 148.235 229.692 148.321C230.21 149.608 230.728 150.896 231.247 152.184C231.339 151.914 231.515 151.68 231.75 151.516C231.985 151.353 232.266 151.27 232.552 151.278C233.634 151.441 234.393 152.448 235.422 152.819C237.362 153.519 239.435 151.58 239.686 149.533C239.937 147.487 238.963 145.512 238.017 143.68C240.107 144.067 242.264 143.836 244.225 143.017C246.186 142.197 247.865 140.823 249.057 139.064C250.249 137.305 250.902 135.237 250.936 133.112C250.97 130.988 250.383 128.9 249.248 127.104C251.497 124.743 254.143 122.795 257.067 121.35C259.772 120.014 262.731 119.097 265.096 117.223C267.46 115.349 269.118 112.095 267.981 109.302C267.178 107.328 265.163 105.989 264.56 103.945C263.687 100.987 266.339 97.9269 269.334 97.1878C272.33 96.4487 275.459 97.3571 278.41 98.2585C277.956 95.2233 281.476 92.3779 284.351 93.4557C285.555 92.9684 286.759 92.4811 287.963 91.9938C286.567 95.0694 283.543 97.0262 281.319 99.5689C279.095 102.111 277.771 106.252 280.094 108.704C283.424 105.688 286.753 102.671 290.083 99.655C293.566 96.4998 297.048 93.3446 300.531 90.1894C300.365 89.7011 300.198 89.2128 300.032 88.7245C303.327 87.4736 306.876 86.4388 310.028 84.8853Z" fill="#E4E7EC"/>
<path d="M137.086 125.482C136.951 125.676 136.88 125.906 136.881 126.142C136.882 126.378 136.956 126.607 137.093 126.8C137.272 126.951 137.498 127.036 137.732 127.039C137.967 127.042 138.195 126.964 138.378 126.817C138.736 126.512 139.015 126.125 139.192 125.69C139.365 126.025 139.637 126.298 139.971 126.472C140.305 126.647 140.684 126.715 141.058 126.666C141.804 126.554 142.51 126.259 143.115 125.809C143.595 125.528 144.019 125.16 144.365 124.725C144.536 124.506 144.653 124.25 144.708 123.977C144.762 123.705 144.752 123.423 144.679 123.155C144.499 122.744 144.22 122.384 143.867 122.107C142.986 121.294 142.105 120.48 141.224 119.667L140.925 119.577C140.77 119.412 140.583 119.28 140.375 119.189C140.167 119.098 139.943 119.049 139.716 119.047C139.489 119.045 139.264 119.088 139.054 119.175C138.845 119.261 138.655 119.39 138.496 119.551C137.949 120.164 137.946 121.078 138.03 121.895C138.114 122.711 138.244 123.581 137.88 124.317C137.672 124.739 137.318 125.073 137.086 125.482Z" fill="#E4E7EC"/>
<path d="M188.203 153.269C184.779 152.507 181.645 150.781 179.171 148.296C176.697 145.811 174.987 142.669 174.242 139.243C173.918 137.626 173.771 135.86 172.694 134.61C171.653 133.4 169.951 132.963 168.354 132.963C166.757 132.963 165.182 133.331 163.588 133.43C160.801 133.604 157.848 132.868 155.855 130.913C154.911 129.987 154.197 128.811 153.094 128.081C151.613 127.1 149.649 127.1 147.961 127.656C146.081 128.276 144.576 129.971 142.52 129.737C140.382 129.495 137.904 128.739 137.066 131.553C136.824 132.363 136.907 133.252 136.601 134.04C136.13 135.255 134.879 135.94 133.89 136.789C131.898 138.498 130.839 141.095 130.482 143.695C130.126 146.295 130.402 148.935 130.678 151.545C130.827 152.953 131.023 154.468 131.99 155.502C133.339 156.943 135.602 156.887 137.569 156.725C139.855 156.536 142.14 156.347 144.426 156.159C145.658 156.057 147.062 156.014 147.939 156.885C148.465 157.407 148.688 158.162 149.15 158.74C149.565 159.233 150.134 159.57 150.766 159.697C151.397 159.824 152.053 159.734 152.627 159.441C152.163 160.269 151.911 161.198 151.892 162.146C151.873 163.094 152.089 164.033 152.519 164.878C152.95 165.723 153.582 166.449 154.36 166.992C155.139 167.535 156.039 167.877 156.981 167.989L157.157 168.1C155.694 170.605 154.176 173.418 154.782 176.254C155.303 178.686 157.318 180.636 157.647 183.101C157.95 185.363 156.769 187.676 157.291 189.897C157.82 192.146 160.093 193.715 162.399 193.882C164.705 194.05 166.97 193.027 168.756 191.56C170.542 190.093 171.923 188.203 173.284 186.335C174.124 185.182 174.986 183.981 175.274 182.584C175.581 181.097 175.225 179.449 175.948 178.114C176.783 176.575 178.763 175.997 179.763 174.56C181.057 172.698 180.294 170.162 180.58 167.913C181.288 162.347 188.364 158.878 188.203 153.269Z" fill="#E4E7EC"/>
<path d="M187.181 172.271C186.988 173.14 186.174 173.713 185.398 174.15C184.622 174.588 183.769 175.029 183.374 175.827C182.969 176.644 183.154 177.618 183.365 178.505C183.806 180.35 184.325 182.174 184.922 183.977C186.08 181.791 187.091 179.53 187.948 177.209C188.311 176.345 188.535 175.429 188.612 174.495C188.647 174.028 188.585 173.558 188.427 173.116C188.27 172.674 188.022 172.271 187.699 171.931L187.181 172.271Z" fill="#E4E7EC"/>
<path d="M234.795 162.591C233.822 161.469 232.85 160.347 231.878 159.225C231.213 158.458 230.455 157.639 229.447 157.511L229.033 157.776C229.876 159.782 230.719 161.788 231.562 163.794C231.86 164.71 232.385 165.536 233.089 166.195C233.843 166.788 235.067 166.902 235.696 166.177C235.899 165.906 236.027 165.586 236.067 165.249C236.107 164.913 236.058 164.572 235.925 164.26C235.65 163.641 235.268 163.076 234.795 162.591Z" fill="#E4E7EC"/>
<path d="M244.215 164.739C244.583 164.611 244.919 164.409 245.204 164.143C245.488 163.878 245.714 163.557 245.868 163.199C246.169 162.483 246.368 161.728 246.459 160.957C246.625 159.952 246.791 158.948 246.957 157.943L246.74 157.887C246.529 157.786 246.288 157.765 246.062 157.827C245.837 157.89 245.641 158.032 245.512 158.228C245.268 158.627 245.082 159.059 244.963 159.512C244.901 159.738 244.789 159.947 244.635 160.124C244.481 160.3 244.29 160.44 244.074 160.533C243.294 160.768 242.555 159.941 241.74 159.974C241.411 160.015 241.106 160.167 240.874 160.405C240.643 160.643 240.499 160.951 240.465 161.281C240.418 161.947 240.607 162.609 240.999 163.15C241.693 164.227 242.982 165.094 244.215 164.739Z" fill="#E4E7EC"/>
<path d="M249.591 166.643L251.831 160.745C250.923 161.403 250.228 162.312 249.83 163.36C249.432 164.408 249.348 165.549 249.591 166.643Z" fill="#E4E7EC"/>
<path d="M261.025 161.889L260.572 161.908C260.369 162.308 260.262 162.75 260.257 163.198C260.253 163.647 260.352 164.09 260.547 164.494C260.945 165.3 261.523 166.003 262.237 166.548C263.344 167.462 264.608 168.167 265.966 168.629C267.959 169.21 270.019 169.527 272.094 169.573C273.28 169.65 274.466 169.728 275.652 169.805C276.217 169.842 276.948 169.771 277.105 169.227C277.234 168.778 276.852 168.356 276.494 168.054C273.356 165.415 269.552 163.689 265.498 163.066C263.96 162.832 262.329 162.736 261.025 161.889Z" fill="#E4E7EC"/>
<path d="M273.685 177.542C272.832 176.715 271.979 175.889 271.126 175.062C270.297 174.258 269.054 173.406 268.103 174.062C267.557 174.44 267.388 175.176 266.925 175.651C266.643 175.904 266.302 176.082 265.934 176.17C265.565 176.258 265.181 176.252 264.815 176.154C264.087 175.949 263.398 175.623 262.778 175.188L260.661 173.876C259.931 173.423 259.201 172.97 258.47 172.517L256.822 174.118C256.894 173.33 255.843 172.818 255.115 173.129C254.769 173.323 254.471 173.593 254.244 173.917C254.017 174.242 253.866 174.614 253.802 175.005C253.681 175.787 253.469 176.553 253.172 177.286C252.335 178.888 250.303 179.362 248.515 179.63C246.728 179.898 244.702 180.276 243.746 181.809C242.949 183.086 243.187 184.726 243.454 186.207L244.461 191.811C244.509 192.49 244.781 193.133 245.236 193.64C246.121 194.421 247.492 193.946 248.572 193.47C250.83 192.385 253.253 191.683 255.742 191.393C258.253 191.112 260.78 191.759 262.846 193.212C264.127 194.187 265.104 195.537 266.461 196.403C267.397 196.965 268.448 197.306 269.535 197.401C270.622 197.496 271.716 197.342 272.734 196.95C274.775 196.137 276.465 194.632 277.505 192.697C278.429 190.992 278.892 189.075 278.85 187.136C278.808 185.197 278.261 183.303 277.264 181.639C276.246 180.13 275.044 178.754 273.685 177.542Z" fill="#E4E7EC"/>
<path d="M271.17 200.373C270.966 200.622 270.846 200.929 270.829 201.251C270.811 201.572 270.898 201.89 271.075 202.159C271.446 202.692 272.013 203.056 272.652 203.174C273.284 203.287 273.929 203.317 274.569 203.262L274.589 202.784C274.418 201.945 274.031 201.165 273.466 200.521C272.848 199.934 271.756 199.754 271.17 200.373Z" fill="#E4E7EC"/>
<path d="M293.136 200.885L292.831 200.773C292.103 201.869 291.375 202.966 290.647 204.063C290.255 204.653 289.847 205.361 290.086 206.028C290.368 206.817 291.414 207.048 292.226 206.839C292.846 206.671 293.404 206.33 293.837 205.855C294.269 205.381 294.558 204.793 294.668 204.16C294.757 203.525 294.66 202.877 294.388 202.295C294.116 201.714 293.682 201.224 293.136 200.885Z" fill="#E4E7EC"/>
<path d="M298.685 197.405L296.676 195.808C296.649 196.549 296.622 197.289 296.595 198.03L296.52 198.031C296.983 198.438 297.421 198.872 297.83 199.333C298.3 199.733 299.089 199.916 299.491 199.448C299.611 199.28 299.68 199.081 299.687 198.874C299.695 198.668 299.642 198.464 299.534 198.288C299.313 197.94 299.025 197.639 298.685 197.405Z" fill="#E4E7EC"/>
<path d="M262.382 127.936C261.539 127.91 260.606 127.859 259.953 128.392C259.738 128.584 259.549 128.804 259.392 129.046L259.161 129.368C258.817 129.819 258.516 130.302 258.264 130.811C258.132 131.049 258.053 131.313 258.032 131.585C258.011 131.856 258.048 132.129 258.142 132.385C258.196 132.507 258.276 132.616 258.377 132.704C258.477 132.792 258.596 132.856 258.725 132.893C258.853 132.93 258.988 132.938 259.121 132.917C259.253 132.896 259.378 132.846 259.489 132.771C259.849 132.438 259.765 131.833 260.038 131.424C260.158 131.27 260.312 131.146 260.488 131.062C260.664 130.978 260.857 130.936 261.052 130.939C261.442 130.949 261.829 130.993 262.211 131.07C263.268 131.215 264.344 131.054 265.313 130.607C266.282 130.16 267.102 129.445 267.677 128.547C268.252 127.649 268.558 126.605 268.559 125.538C268.56 124.472 268.255 123.428 267.681 122.529L267.613 122.322C267.03 122.299 266.456 122.482 265.994 122.839C265.531 123.195 265.208 123.703 265.081 124.273C264.892 125.255 265.292 126.396 264.697 127.199C264.194 127.876 263.225 127.963 262.382 127.936Z" fill="#E4E7EC"/>
<path d="M269.93 117.526L269.802 117.515C269.048 117.652 268.324 117.922 267.663 118.311C267.447 118.412 267.274 118.587 267.176 118.805C267.147 118.921 267.148 119.042 267.178 119.157C267.207 119.273 267.265 119.379 267.346 119.466C267.51 119.639 267.702 119.783 267.913 119.893C268.228 120.103 268.577 120.259 268.944 120.353C269.128 120.399 269.32 120.398 269.504 120.35C269.688 120.303 269.857 120.211 269.996 120.082C270.126 119.903 270.216 119.697 270.258 119.48C270.301 119.262 270.296 119.038 270.242 118.823C270.182 118.381 270.078 117.947 269.93 117.526Z" fill="#E4E7EC"/>
<path d="M256.934 128.187C257.136 127.864 257.279 127.508 257.357 127.136C257.436 126.847 257.514 126.558 257.593 126.269L256.752 125.758C256.351 125.967 255.981 126.231 255.652 126.542C255.489 126.699 255.36 126.888 255.273 127.097C255.186 127.306 255.143 127.531 255.148 127.757C255.159 127.983 255.247 128.199 255.397 128.369C255.547 128.539 255.75 128.653 255.973 128.693C256.163 128.699 256.352 128.655 256.52 128.567C256.689 128.478 256.831 128.347 256.934 128.187Z" fill="#E4E7EC"/>
<path d="M165.371 50.063C165.039 50.27 165.133 50.7706 165.268 51.1382C165.422 51.5602 165.577 51.9821 165.732 52.4041L165.949 51.585C166.139 51.2673 166.223 50.8972 166.188 50.5286C166.113 50.1686 165.683 49.8685 165.371 50.063Z" fill="#E4E7EC"/>
<path d="M375.22 126.074H234.641C231.253 126.07 228.004 124.723 225.609 122.328C223.213 119.934 221.865 116.687 221.861 113.3V12.774C221.865 9.38733 223.213 6.14044 225.609 3.74568C228.004 1.35092 231.253 0.00385278 234.641 0H375.22C378.608 0.00385132 381.857 1.35092 384.253 3.74568C386.648 6.14044 387.996 9.38733 388 12.774V113.3C387.996 116.687 386.649 119.934 384.253 122.328C381.857 124.723 378.608 126.07 375.22 126.074Z" fill="white"/>
<path d="M375.22 126.074H234.641C231.253 126.07 228.004 124.723 225.609 122.328C223.213 119.934 221.865 116.687 221.861 113.3V12.774C221.865 9.38733 223.213 6.14044 225.609 3.74568C228.004 1.35092 231.253 0.00385278 234.641 0H375.22C378.608 0.00385132 381.857 1.35092 384.253 3.74568C386.648 6.14044 387.996 9.38733 388 12.774V113.3C387.996 116.687 386.649 119.934 384.253 122.328C381.857 124.723 378.608 126.07 375.22 126.074ZM234.641 1.11078C231.547 1.11425 228.582 2.34417 226.394 4.5307C224.206 6.71723 222.976 9.68181 222.973 12.774V113.3C222.976 116.392 224.206 119.357 226.394 121.543C228.582 123.73 231.547 124.96 234.641 124.963H375.22C378.314 124.96 381.28 123.73 383.467 121.543C385.655 119.357 386.885 116.392 386.889 113.3V12.774C386.885 9.68181 385.655 6.71723 383.467 4.5307C381.28 2.34417 378.314 1.11425 375.22 1.11078H234.641Z" fill="#98A2B3"/>
<path d="M272.889 15.3061H250.663C250.074 15.3061 249.508 15.0721 249.091 14.6554C248.675 14.2388 248.44 13.6737 248.44 13.0845C248.44 12.4953 248.675 11.9303 249.091 11.5137C249.508 11.097 250.074 10.863 250.663 10.863H272.889C273.478 10.863 274.044 11.097 274.461 11.5137C274.877 11.9303 275.112 12.4953 275.112 13.0845C275.112 13.6737 274.877 14.2388 274.461 14.6554C274.044 15.0721 273.478 15.3061 272.889 15.3061Z" fill="#D0D5DD"/>
<path d="M321.23 65.2914H250.663C250.074 65.2914 249.508 65.0574 249.091 64.6407C248.675 64.2241 248.44 63.659 248.44 63.0698C248.44 62.4806 248.675 61.9156 249.091 61.4989C249.508 61.0823 250.074 60.8483 250.663 60.8483H321.23C321.82 60.8483 322.385 61.0823 322.802 61.4989C323.219 61.9156 323.453 62.4806 323.453 63.0698C323.453 63.659 323.219 64.2241 322.802 64.6407C322.385 65.0574 321.82 65.2914 321.23 65.2914Z" fill="#D0D5DD"/>
<path d="M263.163 51.2667C271.393 51.2667 278.065 44.5979 278.065 36.3716C278.065 28.1453 271.393 21.4766 263.163 21.4766C254.933 21.4766 248.261 28.1453 248.261 36.3716C248.261 44.5979 254.933 51.2667 263.163 51.2667Z" fill="#F0818E"/>
<path fill-rule="evenodd" clip-rule="evenodd" d="M251.774 107.717H248.441V108.827H251.774V107.717ZM349.662 108.827H342.67V107.717H349.662V108.827ZM335.678 108.827H328.686V107.717H335.678V108.827ZM321.694 108.827H314.702V107.717H321.694V108.827ZM307.71 108.827H300.718V107.717H307.71L307.71 108.827ZM293.726 108.827H286.734V107.717H293.726V108.827ZM279.742 108.827H272.75V107.717H279.742L279.742 108.827ZM265.758 108.827H258.766V107.717H265.758V108.827ZM356.654 107.717H359.988V108.827H356.654V107.717Z" fill="#667085"/>
<path d="M305.027 88.0625H302.249V106.946H305.027V88.0625Z" fill="#F0818E"/>
<path d="M333.365 88.0625H330.587V106.946H333.365V88.0625Z" fill="#F0818E"/>
<path d="M347.256 98.615H344.478V106.946H347.256V98.615Z" fill="#F0818E"/>
<path d="M318.918 79.7316H316.14V106.946H318.918V79.7316Z" fill="#F0818E"/>
<path d="M49.9843 125.829C51.8255 125.829 53.3182 124.337 53.3182 122.497C53.3182 120.656 51.8255 119.164 49.9843 119.164C48.143 119.164 46.6504 120.656 46.6504 122.497C46.6504 124.337 48.143 125.829 49.9843 125.829Z" fill="#F0818E"/>
<path d="M58.8747 109.723C60.7159 109.723 62.2086 108.231 62.2086 106.39C62.2086 104.55 60.7159 103.058 58.8747 103.058C57.0334 103.058 55.5408 104.55 55.5408 106.39C55.5408 108.231 57.0334 109.723 58.8747 109.723Z" fill="#F0818E"/>
<path d="M156.669 96.9488C158.51 96.9488 160.003 95.4568 160.003 93.6164C160.003 91.776 158.51 90.2841 156.669 90.2841C154.827 90.2841 153.335 91.776 153.335 93.6164C153.335 95.4568 154.827 96.9488 156.669 96.9488Z" fill="#F0818E"/>
<path d="M79.9462 174.119L88.8703 172.841C91.8884 177.886 92.961 191.313 92.961 191.313L101.695 212.061C102.273 212.454 102.738 212.992 103.042 213.621C103.346 214.25 103.479 214.949 103.428 215.646C103.376 216.343 103.142 217.014 102.748 217.591C102.355 218.169 101.816 218.633 101.186 218.936C100.556 219.24 99.8572 219.372 99.16 219.319C98.4627 219.267 97.7916 219.032 97.2141 218.638C96.6367 218.244 96.1733 217.705 95.8706 217.075C95.5678 216.445 95.4365 215.746 95.4897 215.049L81.15 190.899L79.9462 174.119Z" fill="#FFB6B6"/>
<path d="M84.783 149.355C83.4017 149.569 82.0845 150.084 80.9252 150.865C79.7659 151.645 78.7929 152.671 78.0755 153.87C77.3581 155.069 76.9139 156.412 76.7745 157.802C76.6351 159.192 76.8039 160.596 77.2689 161.913L79.1627 167.279C79.1627 167.279 76.7772 183.433 80.7086 187.993L92.7724 186.902C92.7724 186.902 90.5667 178.752 92.2601 174.808C93.2971 172.393 93.2395 164.052 92.2177 157.267C91.4375 152.085 89.9632 148.553 84.783 149.355Z" fill="#1F49B0"/>
<path d="M126.386 198.03C126.386 198.03 135.685 207.095 133.699 209.188C131.713 211.282 127.171 214.214 131.387 214.692C135.603 215.17 137.352 216.205 133.699 217.076C130.046 217.947 130.611 220.183 130.611 220.183C130.611 220.183 136.11 246.349 131.942 263.566C131.942 263.566 129.623 310.593 128.168 314.255C126.712 317.917 126.157 315.696 126.712 317.917C127.268 320.139 128.379 316.251 127.268 320.139C126.662 322.169 126.181 324.236 125.83 326.326L114.961 324.66C114.961 324.66 113.21 319.146 114.961 317.699C116.711 316.251 118.28 317.143 116.384 313.92C114.488 310.697 113.932 315.14 114.488 310.697C115.044 306.254 112.724 282.223 116.384 269.524L109.62 233.888L98.8814 270.787C98.8814 270.787 93.1853 315.851 91.3345 317.44C89.4838 319.028 86.7056 316.251 89.4838 319.028C92.2621 321.805 92.2136 321.327 92.2621 321.805C92.7795 326.899 76.8715 321.327 76.8715 321.327C76.96 320.033 76.96 318.734 76.8715 317.44C76.7039 316.251 78.7061 315.871 76.8715 314.672C75.037 313.474 77.7667 314.663 77.7667 314.663C77.7667 314.663 81.8691 281.417 84.9901 271.342L88.6018 222.281C88.6018 222.281 88.8311 223.259 88.6018 220.881C88.3726 218.502 86.7056 220.168 88.3726 218.502C90.0395 216.836 91.1508 215.987 90.0395 214.745C88.9282 213.503 85.8626 210.991 87.6732 209.47C89.4838 207.949 93.047 198.03 93.047 198.03L127.775 198.308" fill="#002B7C"/>
<path d="M113.329 142.95L107.067 135.902L97.1726 137.001L90.8378 145.862C87.4659 146.637 84.5194 148.674 82.6043 151.555C80.6893 154.435 79.9515 157.939 80.5427 161.346C83.0009 175.495 91.355 189.218 88.5965 196.199C84.4092 206.796 84.1537 211.117 94.1771 209.632C104.2 208.146 137.781 204.721 131.27 198.214C124.76 191.706 123.33 180.832 123.33 180.832L123.069 155.953C123.346 154.453 123.309 152.911 122.961 151.426C122.612 149.94 121.96 148.543 121.045 147.321C120.131 146.1 118.973 145.081 117.645 144.329C116.317 143.576 114.847 143.107 113.329 142.95Z" fill="#1F49B0"/>
<path d="M111.618 170.231L120.542 168.953C123.56 173.998 124.633 187.425 124.633 187.425L133.367 208.173C133.945 208.566 134.41 209.104 134.714 209.733C135.018 210.363 135.151 211.061 135.1 211.758C135.048 212.455 134.814 213.126 134.42 213.704C134.027 214.281 133.488 214.745 132.858 215.048C132.228 215.352 131.529 215.484 130.832 215.432C130.135 215.379 129.464 215.144 128.886 214.75C128.309 214.356 127.845 213.817 127.543 213.187C127.24 212.557 127.108 211.858 127.162 211.161L112.822 187.011L111.618 170.231Z" fill="#FFB6B6"/>
<path d="M116.455 145.467C115.074 145.681 113.757 146.197 112.597 146.977C111.438 147.757 110.465 148.784 109.748 149.983C109.03 151.182 108.586 152.524 108.446 153.914C108.307 155.304 108.476 156.708 108.941 158.026L110.835 163.391C110.835 163.391 108.449 179.546 112.381 184.106L124.444 183.014C124.444 183.014 122.239 174.864 123.932 170.92C124.969 168.505 124.912 160.164 123.89 153.379C123.109 148.198 121.635 144.665 116.455 145.467Z" fill="#1F49B0"/>
<path d="M99.3989 135.296C106.004 135.296 111.358 129.944 111.358 123.342C111.358 116.74 106.004 111.388 99.3989 111.388C92.7939 111.388 87.4396 116.74 87.4396 123.342C87.4396 129.944 92.7939 135.296 99.3989 135.296Z" fill="#FFB6B6"/>
<path d="M97.1994 135.043C100.53 134.209 100.644 133.258 103.974 132.424C105.035 132.158 106.264 131.74 106.578 130.693C106.653 130.31 106.637 129.915 106.533 129.54C106.43 129.164 106.24 128.817 105.979 128.527C105.454 127.952 104.963 127.348 104.507 126.718C104.205 126.211 104.03 125.639 103.999 125.05C103.968 124.462 104.081 123.874 104.327 123.339C104.574 122.803 104.948 122.336 105.416 121.977C105.884 121.618 106.432 121.379 107.014 121.28C108.044 121.103 109.107 121.376 110.144 121.244C111.566 121.063 113.657 115.789 112.746 114.683C111.858 113.607 110.402 112.965 109.912 111.658C109.592 110.804 109.767 109.849 109.625 108.947C109.413 107.611 106.708 111.311 107.068 110.007C107.952 106.808 93.0084 106.304 91.4527 110.408C90.8713 111.942 89.2972 112.185 88.0865 113.292C87.293 114.018 85.3951 116.34 85.12 117.591C84.8921 118.856 84.936 120.156 85.2486 121.403C86.4897 127.249 88.5409 132.43 94.0009 134.866" fill="#2F2E41"/>
</g>
<defs>
<clipPath id="clip0_45_401">
<rect width="388" height="338" fill="white"/>
</clipPath>
</defs>
</svg>
