<svg width="375" height="200" viewBox="0 0 375 200" fill="none" xmlns="http://www.w3.org/2000/svg">
<path opacity="0.0144928" d="M94.2508 423.305L14.8193 280.215C11.7236 274.639 10.9547 268.066 12.6796 261.925L78.9269 26.0945C80.2834 21.2655 83.107 16.9773 87.0071 13.823L251.229 -118.995C258.301 -124.714 267.982 -125.986 276.29 -122.286L404.484 -65.2111C412.792 -61.5119 418.325 -53.4666 418.807 -44.3846L429.99 166.529C430.255 171.538 428.958 176.505 426.277 180.745L295.349 387.778C291.94 393.168 286.54 396.995 280.325 398.426L120.839 435.142C110.328 437.562 99.4854 432.735 94.2508 423.305Z" stroke="white" stroke-opacity="0.25" stroke-width="1.6"/>
<path opacity="0.0289855" d="M120.664 430.729L34.2946 293.188C30.8977 287.779 29.7772 281.246 31.1775 275.014L84.3631 38.3029C85.466 33.3942 88.0714 28.9513 91.8168 25.5921L247.631 -114.15C254.393 -120.215 263.981 -121.982 272.461 -118.727L402.628 -68.7603C411.108 -65.5052 417.051 -57.7759 418.018 -48.7445L440.305 159.364C440.84 164.367 439.804 169.412 437.339 173.798L318.473 385.296C315.343 390.864 310.139 394.97 303.995 396.717L147.777 441.137C137.431 444.079 126.385 439.838 120.664 430.729Z" stroke="white" stroke-opacity="0.25" stroke-width="1.6"/>
<path opacity="0.0434783" d="M147.145 437.315L54.1989 305.653C50.5096 300.427 49.0396 293.953 50.1103 287.646L90.3255 50.7706C91.1702 45.7953 93.549 41.2086 97.1293 37.6521L244.263 -108.503C250.699 -114.896 260.169 -117.153 268.796 -114.35L400.548 -71.5408C409.175 -68.7377 415.51 -61.3453 416.959 -52.3907L450.085 152.334C450.891 157.316 450.12 162.425 447.879 166.947L341.182 382.221C338.341 387.953 333.346 392.326 327.289 394.386L174.706 446.27C164.55 449.723 153.332 446.079 147.145 437.315Z" stroke="white" stroke-opacity="0.25" stroke-width="1.6"/>
<path opacity="0.057971" d="M173.646 443.067L74.5012 317.592C70.5292 312.565 68.7126 306.169 69.4498 299.804L96.8246 63.467C97.407 58.4385 99.5516 53.7193 102.957 49.9735L241.169 -102.074C247.262 -108.777 256.589 -111.516 265.34 -109.171L398.287 -73.548C407.037 -71.2034 413.745 -64.168 415.671 -55.3161L459.343 145.467C460.418 150.413 459.916 155.573 457.906 160.219L363.445 378.58C360.901 384.46 356.13 389.092 350.176 391.459L201.577 450.551C191.636 454.504 180.279 451.461 173.646 443.067Z" stroke="white" stroke-opacity="0.25" stroke-width="1.6"/>
<path opacity="0.0724638" d="M200.123 447.993L95.1702 328.989C90.9261 324.176 88.7669 317.875 89.1673 311.471L103.869 76.3614C104.186 71.2933 106.09 66.4534 109.309 62.5268L238.39 -94.8837C244.126 -101.879 253.285 -105.091 262.134 -103.21L395.888 -74.7796C404.737 -72.8987 411.798 -66.2393 414.193 -57.5155L468.089 138.788C469.434 143.684 469.204 148.88 467.432 153.639L385.235 374.403C382.996 380.416 378.461 385.294 372.626 387.964L228.343 453.992C218.643 458.431 207.18 455.994 200.123 447.993Z" stroke="white" stroke-opacity="0.25" stroke-width="1.6"/>
<path opacity="0.0869565" d="M226.53 452.102L116.173 339.828C111.668 335.245 109.172 329.058 109.233 322.632L111.467 89.4227C111.516 84.3288 113.171 79.3802 116.196 75.2818L235.964 -86.9579C241.329 -94.226 250.296 -97.9005 259.219 -96.4873L393.395 -75.2358C402.318 -73.8226 409.711 -67.557 412.568 -58.9866L476.339 132.323C477.949 137.155 477.994 142.373 476.467 147.233L406.526 369.719C404.598 375.849 400.312 380.962 394.611 383.928L254.961 456.605C245.524 461.516 233.987 459.689 226.53 452.102Z" stroke="white" stroke-opacity="0.25" stroke-width="1.6"/>
<path opacity="0.101449" d="M252.824 455.406L137.478 350.098C132.725 345.759 129.896 339.704 129.617 333.274L119.623 102.62C119.402 97.5138 120.803 92.469 123.625 88.2083L233.93 -78.3223C238.912 -85.8433 247.663 -89.969 256.635 -89.026L390.852 -74.9193C399.823 -73.9763 407.526 -68.1212 410.835 -59.7288L484.106 126.096C485.981 130.851 486.302 136.076 485.024 141.025L427.292 364.561C425.683 370.793 421.657 376.127 416.106 379.383L281.385 458.408C272.236 463.775 260.658 462.558 252.824 455.406Z" stroke="white" stroke-opacity="0.25" stroke-width="1.6"/>
<path opacity="0.115942" d="M278.962 457.967L159.052 359.837C154.063 355.754 150.909 349.85 150.29 343.433L128.341 115.969C127.849 110.866 128.99 105.737 131.6 101.324L232.324 -68.9563C236.91 -76.7097 245.423 -81.274 254.419 -80.8026L388.299 -73.7862C397.295 -73.3148 405.285 -67.8856 409.035 -59.6953L491.408 120.181C493.543 124.843 494.142 130.062 493.118 135.086L447.513 359.01C446.227 365.327 442.473 370.869 437.085 374.408L307.574 459.467C298.733 465.273 287.147 464.666 278.962 457.967Z" stroke="white" stroke-opacity="0.25" stroke-width="1.6"/>
<path opacity="0.130435" d="M304.903 459.706L180.86 368.938C175.649 365.126 172.179 359.388 171.219 353.003L137.623 129.343C136.859 124.255 137.736 119.057 140.126 114.502L231.179 -58.9876C235.359 -66.9523 243.612 -71.9414 252.607 -71.9414L385.78 -71.9414C394.775 -71.9414 403.028 -66.9523 407.208 -58.9875L498.261 114.502C500.652 119.057 501.529 124.255 500.764 129.343L467.168 353.003C466.209 359.388 462.738 365.125 457.527 368.938L333.485 459.706C324.975 465.933 313.413 465.933 304.903 459.706Z" stroke="white" stroke-opacity="0.25" stroke-width="1.6"/>
<path opacity="0.144928" d="M330.606 460.689L202.87 377.444C197.452 373.913 193.673 368.36 192.375 362.025L147.469 142.758C146.433 137.701 147.042 132.446 149.205 127.759L230.529 -48.3988C234.294 -56.5534 242.265 -61.9523 251.234 -62.4223L383.335 -69.3455C392.304 -69.8155 400.796 -65.2794 405.393 -57.563L504.684 109.129C507.326 113.564 508.48 118.727 507.979 123.864L486.238 346.624C485.61 353.061 482.432 358.978 477.412 363.056L359.078 459.196C350.919 465.825 339.413 466.428 330.606 460.689Z" stroke="white" stroke-opacity="0.25" stroke-width="1.6"/>
<path opacity="0.15942" d="M356.031 460.936L225.048 385.349C219.438 382.111 215.36 376.76 213.726 370.492L157.877 156.183C156.571 151.171 156.907 145.872 158.837 141.066L230.402 -37.2232C233.743 -45.5457 241.412 -51.3385 250.331 -52.2759L381.004 -66.0102C389.923 -66.9476 398.629 -62.8759 403.627 -55.4299L510.697 104.084C513.584 108.384 515.014 113.497 514.779 118.671L504.707 339.908C504.413 346.379 501.536 352.462 496.722 356.795L384.316 457.963C376.527 464.975 365.109 466.175 356.031 460.936Z" stroke="white" stroke-opacity="0.25" stroke-width="1.6"/>
<path opacity="0.173913" d="M381.143 460.471L247.361 392.65C241.574 389.716 237.208 384.582 235.241 378.399L168.845 169.588C167.27 164.635 167.331 159.306 169.02 154.391L230.828 -25.496C233.738 -33.9641 241.085 -40.1336 249.929 -41.5343L378.827 -61.9497C387.67 -63.3504 396.565 -59.7534 401.949 -52.5989L516.32 99.3838C519.445 103.537 521.15 108.585 521.183 113.783L522.562 332.891C522.603 339.379 520.037 345.612 515.439 350.191L409.163 456.033C401.76 463.406 390.462 465.195 381.143 460.471Z" stroke="white" stroke-opacity="0.25" stroke-width="1.6"/>
<path opacity="0.188406" d="M405.906 459.318L269.775 399.346C263.827 396.726 259.184 391.824 256.89 385.743L180.366 182.941C178.525 178.061 178.31 172.717 179.752 167.704L231.832 -13.2527C234.304 -21.8439 241.312 -28.3721 250.056 -30.2308L376.84 -57.1796C385.585 -59.0383 394.642 -55.9247 400.395 -49.0819L521.574 95.0479C524.93 99.0402 526.907 104.01 527.21 109.217L539.79 325.611C540.167 332.099 537.919 338.466 533.551 343.279L433.583 453.436C426.584 461.148 415.436 463.517 405.906 459.318Z" stroke="white" stroke-opacity="0.25" stroke-width="1.6"/>
<path opacity="0.202899" d="M430.284 457.504L292.256 405.438C286.165 403.14 281.257 398.485 278.64 392.525L192.436 196.213C190.331 191.42 189.837 186.074 191.028 180.977L233.437 -0.530473C235.467 -9.22184 242.117 -16.0899 250.738 -18.4L375.082 -51.7177C383.703 -54.0277 392.896 -51.4048 399 -44.8932L526.481 91.0928C530.061 94.9116 532.306 99.7883 532.88 104.991L556.381 318.104C557.095 324.575 555.171 331.06 551.045 336.095L457.543 450.2C450.964 458.229 439.996 461.168 430.284 457.504Z" stroke="white" stroke-opacity="0.25" stroke-width="1.6"/>
<path opacity="0.217391" d="M454.246 455.056L314.773 410.927C308.556 408.96 303.395 404.567 300.461 398.744L205.045 209.374C202.681 204.683 201.908 199.349 202.842 194.18L235.664 12.6323C237.249 3.8637 243.525 -3.32435 252 -6.07793L373.587 -45.5839C382.061 -48.3375 391.364 -46.211 397.8 -40.0489L531.065 87.5337C534.859 91.1667 537.369 95.9359 538.214 101.121L572.329 310.408C573.378 316.844 571.785 323.431 567.912 328.677L481.014 446.359C474.868 454.682 464.11 458.177 454.246 455.056Z" stroke="white" stroke-opacity="0.25" stroke-width="1.6"/>
<path opacity="0.231884" d="M477.762 452.004L337.291 415.818C330.966 414.189 325.568 410.071 322.324 404.402L218.183 222.396C215.564 217.819 214.512 212.513 215.186 207.283L238.533 26.1968C239.671 17.374 245.557 9.88654 253.862 6.69856L372.388 -38.7996C380.693 -41.9875 390.078 -40.362 396.827 -34.5665L535.347 84.3846C539.348 87.8197 542.117 92.4675 543.233 97.6209L587.627 302.561C589.01 308.945 587.753 315.617 584.143 321.061L503.966 441.945C498.266 450.538 487.747 454.576 477.762 452.004Z" stroke="white" stroke-opacity="0.25" stroke-width="1.6"/>
<path opacity="0.246377" d="M500.803 448.378L359.781 420.117C353.365 418.831 347.743 415.002 344.198 409.503L231.839 235.25C228.971 230.802 227.64 225.536 228.051 220.259L242.06 40.123C242.749 31.2691 248.231 23.5036 256.344 19.8916L371.52 -31.3879C379.633 -35 389.072 -33.8783 396.113 -28.4657L539.354 81.6582C543.55 84.884 546.573 89.3965 547.959 94.5043L602.272 294.601C603.986 300.916 603.07 307.655 599.733 313.284L526.373 436.994C521.131 445.833 510.879 450.398 500.803 448.378Z" stroke="white" stroke-opacity="0.25" stroke-width="1.6"/>
<path opacity="0.26087" d="M523.342 444.212L382.209 423.832C375.722 422.895 369.892 419.366 366.053 414.053L246.001 247.909C242.89 243.603 241.282 238.392 241.425 233.081L246.259 54.3704C246.499 45.5086 251.565 37.4871 259.464 33.4624L371.011 -23.374C378.91 -27.3986 388.377 -26.7822 395.688 -21.7672L543.109 79.3657C547.49 82.3712 550.76 86.7348 552.415 91.7833L616.264 286.565C618.306 292.793 617.734 299.584 614.678 305.383L548.211 431.541C543.437 440.601 533.478 445.676 523.342 444.212Z" stroke="white" stroke-opacity="0.25" stroke-width="1.6"/>
<path opacity="0.275362" d="M545.356 439.538L404.547 426.971C398.007 426.387 391.984 423.17 387.862 418.059L260.655 260.346C257.306 256.195 255.423 251.054 255.298 245.722L251.142 68.8985C250.934 60.0516 255.572 51.7967 263.235 47.372L370.892 -14.7836C378.556 -19.2083 388.023 -19.097 395.581 -14.4935L546.637 77.5172C551.192 80.2917 554.702 84.4932 556.623 89.4686L629.603 278.49C631.969 284.615 631.743 291.439 628.978 297.395L569.458 425.623C565.161 434.879 555.52 440.445 545.356 439.538Z" stroke="white" stroke-opacity="0.25" stroke-width="1.6"/>
<path opacity="0.289855" d="M566.822 434.391L426.763 429.545C420.189 429.317 413.991 426.424 409.596 421.529L275.784 272.536C272.206 268.553 270.05 263.495 269.654 258.156L256.718 83.6655C256.065 74.8564 260.263 66.3913 267.671 61.5804L371.189 -5.64483C378.597 -10.4557 388.038 -10.8481 395.82 -6.66853L549.963 76.121C554.68 78.6545 558.424 82.6808 560.608 87.5695L642.293 270.414C644.977 276.42 645.099 283.259 642.633 289.357L590.093 419.278C586.281 428.704 576.983 434.742 566.822 434.391Z" stroke="white" stroke-opacity="0.25" stroke-width="1.6"/>
<path opacity="0.304348" d="M587.719 428.806L448.83 431.567C442.241 431.698 435.884 429.136 431.227 424.474L291.371 284.455C287.572 280.652 285.148 275.692 284.48 270.358L262.994 98.6304C261.899 89.8818 265.649 81.2301 272.782 76.0477L371.928 4.01379C379.061 -1.16862 388.448 -2.06158 396.431 1.68292L553.113 75.1842C557.98 77.4673 561.948 81.3058 564.392 86.0942L654.339 262.373C657.334 268.243 657.806 275.08 655.646 281.306L610.101 412.545C606.779 422.116 597.848 428.604 587.719 428.806Z" stroke="white" stroke-opacity="0.25" stroke-width="1.6"/>
<path opacity="0.318841" d="M608.031 422.819L470.718 433.05C464.134 433.541 457.636 431.32 452.729 426.903L307.399 296.079C303.387 292.468 300.698 287.619 299.759 282.304L269.974 113.752C268.443 105.086 271.736 96.2716 278.575 90.7335L373.133 14.162C379.972 8.62394 389.279 7.2349 397.437 10.5345L556.113 74.7125C561.117 76.7363 565.301 80.3748 567.999 85.0495L665.748 254.404C669.049 260.122 669.869 266.94 668.021 273.278L629.465 405.463C626.638 415.152 618.096 422.069 608.031 422.819Z" stroke="white" stroke-opacity="0.25" stroke-width="1.6"/>
<path opacity="0.333333" d="M627.741 416.468L492.402 434.01C485.842 434.86 479.221 432.989 474.077 428.831L323.848 307.386C319.633 303.979 316.684 299.255 315.474 293.973L277.661 128.988C275.699 120.427 278.529 111.475 285.056 105.598L374.826 24.769C381.353 18.892 390.552 17.0128 398.861 19.859L558.989 74.71C564.117 76.4663 568.506 79.8929 571.454 84.4408L676.53 246.541C680.128 252.092 681.297 258.872 679.766 265.307L648.173 398.071C645.845 407.852 637.712 415.175 627.741 416.468Z" stroke="white" stroke-opacity="0.25" stroke-width="1.6"/>
<path opacity="0.347826" d="M646.835 409.789L513.855 434.463C507.339 435.672 500.613 434.156 495.246 430.27L340.698 318.355C336.29 315.163 333.086 310.578 331.605 305.341L286.054 144.298C283.668 135.863 286.03 126.797 292.228 120.599L377.025 35.8024C383.223 29.6041 392.288 27.2422 400.723 29.628L561.766 75.1794C567.003 76.6607 571.588 79.8641 574.78 84.2722L686.695 238.821C690.582 244.188 692.097 250.914 690.889 257.429L666.214 390.41C664.387 400.257 656.683 407.962 646.835 409.789Z" stroke="white" stroke-opacity="0.25" stroke-width="1.6"/>
<path opacity="0.362319" d="M665.304 402.82L535.052 434.427C528.6 435.992 521.789 434.838 516.212 431.236L357.927 328.966C353.336 326 349.884 321.567 348.134 316.389L295.15 159.641C292.348 151.353 294.238 142.199 300.091 135.698L379.749 47.2297C385.602 40.7287 394.509 37.8928 403.043 39.8125L564.471 76.1221C569.804 77.3216 574.573 80.2908 578.003 84.5465L696.258 231.275C700.424 236.444 702.283 243.098 701.401 249.678L683.582 382.52C682.256 392.407 674.998 400.468 665.304 402.82Z" stroke="white" stroke-opacity="0.25" stroke-width="1.6"/>
<path opacity="0.376812" d="M683.137 395.6L555.971 433.92C549.602 435.839 542.724 435.052 536.954 431.744L375.512 339.2C370.75 336.47 367.057 332.202 365.04 327.097L304.944 174.976C301.736 166.857 303.15 157.64 308.644 150.855L383.013 59.0175C388.507 52.2331 397.229 48.9335 405.838 50.383L567.129 77.5384C572.542 78.4498 577.485 81.1745 581.145 85.2653L705.232 223.938C709.668 228.894 711.868 235.458 711.314 242.087L700.271 374.441C699.444 384.342 692.65 392.733 683.137 395.6Z" stroke="white" stroke-opacity="0.25" stroke-width="1.6"/>
<path opacity="0.391304" d="M700.327 388.165L576.589 432.963C570.322 435.232 563.398 434.816 557.448 431.813L393.431 349.042C388.509 346.558 384.583 342.467 382.302 337.447L315.429 190.265C311.825 182.334 312.763 173.078 317.883 166.03L386.831 71.1316C391.952 64.0839 400.465 60.3322 409.122 61.3085L569.765 79.4265C575.244 80.0444 580.347 82.5147 584.231 86.4285L713.636 216.84C718.33 221.57 720.865 228.028 720.644 234.688L716.276 366.214C715.948 376.104 709.631 384.797 700.327 388.165Z" stroke="white" stroke-opacity="0.25" stroke-width="1.6"/>
<path opacity="0.405797" d="M716.871 380.556L596.885 431.577C590.74 434.19 583.788 434.148 577.675 431.461L411.659 358.474C406.59 356.245 402.437 352.345 399.896 347.424L326.596 205.468C322.607 197.745 323.068 188.475 327.802 181.185L391.215 83.5379C395.949 76.2476 404.23 72.0566 412.908 72.5585L572.405 81.7838C577.934 82.1036 583.186 84.3102 587.285 88.0352L721.486 210.012C726.427 214.503 729.293 220.837 729.406 227.513L731.598 357.879C731.764 367.731 725.939 376.7 716.871 380.556Z" stroke="white" stroke-opacity="0.25" stroke-width="1.6"/>
<path opacity="0.42029" d="M732.766 372.808L616.84 429.784C610.835 432.735 603.876 433.069 597.617 430.705L430.172 367.483C424.967 365.518 420.598 361.819 417.801 357.01L338.432 220.548C334.071 213.05 334.056 203.792 338.393 196.281L396.174 96.2013C400.511 88.6899 408.536 84.0737 417.209 84.1014L575.074 84.606C580.637 84.6238 586.025 86.558 590.329 90.083L728.804 203.484C733.98 207.723 737.17 213.916 737.617 220.591L746.238 349.475C746.893 359.264 741.572 368.481 732.766 372.808Z" stroke="white" stroke-opacity="0.25" stroke-width="1.6"/>
<path opacity="0.434783" d="M748.012 364.961L636.435 427.606C630.589 430.889 623.644 431.599 617.255 429.567L448.943 376.056C443.617 374.363 439.04 370.878 435.992 366.193L350.924 235.466C346.204 228.213 345.716 218.991 349.645 211.281L401.715 109.087C405.644 101.377 413.391 96.3507 422.033 95.9058L577.795 87.8879C583.377 87.6006 588.887 89.2543 593.388 92.5682L735.61 197.282C741.009 201.257 744.516 207.293 745.297 213.952L760.2 341.041C761.337 350.744 756.53 360.179 748.012 364.961Z" stroke="white" stroke-opacity="0.25" stroke-width="1.6"/>
<path opacity="0.449275" d="M762.611 357.052L655.654 425.068C649.986 428.673 643.074 429.759 636.573 428.067L467.947 384.183C462.513 382.768 457.739 379.508 454.444 374.96L364.056 250.188C358.991 243.196 358.034 234.035 361.546 226.148L407.844 122.161C411.356 114.273 418.804 108.854 427.389 107.94L580.594 91.6228C586.178 91.028 591.796 92.3939 596.483 95.4862L741.929 191.435C747.536 195.134 751.353 200.997 752.467 207.622L773.489 332.618C775.103 342.208 770.817 351.833 762.611 357.052Z" stroke="white" stroke-opacity="0.25" stroke-width="1.6"/>
<path opacity="0.463768" d="M776.566 349.117L674.482 422.193C669.009 426.111 662.151 427.573 655.556 426.226L487.157 391.852C481.629 390.723 476.668 387.698 473.134 383.3L377.81 264.679C372.415 257.965 370.995 248.889 374.082 240.847L414.564 135.387C417.651 127.345 424.779 121.551 433.282 120.171L583.493 95.8026C589.063 94.899 594.774 95.9702 599.638 98.8309L747.783 185.966C753.585 189.378 757.703 195.053 759.149 201.627L786.115 324.241C788.195 333.697 784.438 343.482 776.566 349.117Z" stroke="white" stroke-opacity="0.25" stroke-width="1.6"/>
<path opacity="0.478261" d="M789.885 341.193L692.905 419.007C687.644 423.228 680.86 425.062 674.189 424.067L506.547 399.056C500.939 398.219 495.803 395.44 492.035 391.203L392.168 278.905C386.458 272.484 384.58 263.517 387.236 255.345L421.877 148.73C424.532 140.558 431.322 134.407 439.715 132.569L586.516 100.418C592.055 99.2052 597.844 99.9756 602.873 102.595L753.199 180.898C759.182 184.014 763.592 189.486 765.367 195.993L798.087 315.949C800.623 325.246 797.401 335.162 789.885 341.193Z" stroke="white" stroke-opacity="0.25" stroke-width="1.6"/>
<path opacity="0.492754" d="M802.575 333.315L710.911 415.534C705.88 420.047 699.19 422.25 692.462 421.61L526.089 405.788C520.416 405.249 515.116 402.725 511.121 398.661L407.106 292.834C401.098 286.721 398.772 277.886 400.99 269.607L429.781 162.158C431.999 153.878 438.432 147.39 446.691 145.101L589.684 105.459C595.176 103.937 601.028 104.401 606.211 106.771L758.204 176.254C764.352 179.065 769.043 184.317 771.144 190.742L809.418 307.778C812.399 316.894 809.715 326.91 802.575 333.315Z" stroke="white" stroke-opacity="0.25" stroke-width="1.6"/>
</svg>
