<svg width="147" height="44" viewBox="0 0 147 44" fill="none" xmlns="http://www.w3.org/2000/svg">
<path fill-rule="evenodd" clip-rule="evenodd" d="M143.384 30.7741C144.181 30.7392 145.01 30.6935 145.873 30.6456V25.0082C145.672 25.0343 145.485 25.0452 145.3 25.0452H144.767C143.83 25.0452 143.162 24.9232 142.759 24.6772C142.352 24.4333 142.147 23.9543 142.147 23.2401V15.4273H145.796V10.9309H142.147V4.89056H134.413V10.9309H131.647V15.4273H134.413V25.2324C134.413 26.2885 134.526 27.1726 134.761 27.8846C134.994 28.5944 135.375 29.1736 135.902 29.6157C136.431 30.0577 137.117 30.3713 137.966 30.5542C138.813 30.7392 139.837 30.8307 141.043 30.8307C141.803 30.8307 142.585 30.8111 143.384 30.7741ZM98.2951 11.0419C96.9211 10.4997 95.373 10.2297 93.6549 10.2297C91.9108 10.2297 90.343 10.4758 88.9538 10.9679C87.5668 11.46 86.3887 12.1655 85.4176 13.0865C84.4464 14.0076 83.7039 15.1268 83.1901 16.4398C82.674 17.755 82.4149 19.2357 82.4149 20.8819C82.4149 22.4279 82.6653 23.841 83.1705 25.1192C83.6734 26.3952 84.3985 27.4818 85.3436 28.381C86.2908 29.276 87.4383 29.9706 88.7905 30.4627C90.1405 30.9526 91.6647 31.1987 93.3588 31.1987C96.4051 31.1987 98.8308 30.65 100.638 29.5591C102.441 28.466 103.615 26.8525 104.157 24.7142H96.7121C96.3202 25.7942 95.349 26.3342 93.8008 26.3342C92.6707 26.3342 91.7997 25.9967 91.1857 25.3217C90.5717 24.6445 90.2407 23.6799 90.1906 22.4279H104.78C104.78 20.4638 104.52 18.7262 104.009 17.2128C103.493 15.7017 102.757 14.4322 101.796 13.4001C100.838 12.368 99.6713 11.5819 98.2951 11.0419ZM93.5809 14.8742C95.791 14.8742 96.9712 16.0893 97.1193 18.5215H90.1928C90.2407 17.3413 90.5586 16.4398 91.1509 15.8127C91.7388 15.1856 92.551 14.8742 93.5809 14.8742ZM57.9794 30.4997H50.2058V20.3658C50.2058 19.0136 50.036 18.0251 49.6919 17.4001C49.3435 16.773 48.6359 16.4595 47.5537 16.4595C45.6114 16.4595 44.6402 17.7746 44.6402 20.4028V30.4997H36.8645V10.9287H43.9413V13.8051C45.7355 11.5427 48.0175 10.4148 50.7937 10.4148C53.202 10.4148 55.0572 11.2009 56.3593 12.7752C57.1193 13.6832 57.5787 14.7458 57.7398 15.963C57.901 17.1758 57.9794 18.6347 57.9794 20.3288V30.4997ZM81.5678 10.9287L75.2314 30.4997H66.5346L59.7148 10.9287H67.4535L70.846 22.687L74.1601 10.9287H81.5678ZM129.104 30.4997H121.328V20.3658C121.328 19.0136 121.158 18.0251 120.814 17.4001C120.466 16.773 119.756 16.4595 118.676 16.4595C116.734 16.4595 115.763 17.7746 115.763 20.4028V30.4997H107.987V10.9287H115.064V13.8051C116.858 11.5427 119.142 10.4148 121.918 10.4148C124.327 10.4148 126.182 11.2009 127.484 12.7752C128.244 13.6832 128.703 14.7458 128.865 15.963C129.023 17.1758 129.104 18.6347 129.104 20.3288V30.4997Z" fill="white"/>
<path fill-rule="evenodd" clip-rule="evenodd" d="M139.027 40.9799C138.959 41.9402 138.626 42.687 138.023 43.2096C137.42 43.7344 136.595 43.9979 135.545 43.9979C134.959 43.9979 134.437 43.9086 133.975 43.73C133.516 43.5515 133.124 43.2989 132.799 42.9679C132.477 42.6369 132.229 42.2385 132.059 41.766C131.887 41.2956 131.802 40.7643 131.802 40.1721C131.802 39.5798 131.889 39.0463 132.059 38.5738C132.229 38.0991 132.475 37.6963 132.795 37.3653C133.115 37.0387 133.505 36.7861 133.962 36.6097C134.419 36.4333 134.931 36.3463 135.493 36.3463C136.555 36.3463 137.387 36.601 137.979 37.1084C138.574 37.6179 138.911 38.3408 138.983 39.2836H136.753C136.677 38.5368 136.27 38.1644 135.521 38.1644C134.606 38.1644 134.151 38.8351 134.151 40.1721C134.151 41.5112 134.63 42.1797 135.584 42.1797C135.948 42.1797 136.235 42.0752 136.446 41.8727C136.658 41.668 136.782 41.3697 136.812 40.9799H139.027ZM91.6343 43.7953H89.324L89.054 42.8373H86.7415L86.4563 43.7953H84.1699L86.7197 36.5422H89.0823L91.6343 43.7953ZM88.6272 41.313L87.9021 38.8002L87.1639 41.313H88.6272ZM99.1312 43.7953H96.9102L94.8743 40.4464C94.8177 40.3528 94.7567 40.22 94.6805 40.0479C94.6087 39.8781 94.5303 39.6625 94.4497 39.4056C94.4824 39.5907 94.4998 39.7627 94.5041 39.9282C94.5085 40.0935 94.5085 40.2502 94.5085 40.396V40.3963V43.7953H92.2984V36.5422H94.5085L96.5488 39.9129C96.6707 40.1067 96.8123 40.4529 96.9734 40.9516C96.9451 40.797 96.9255 40.6358 96.9211 40.4725C96.9146 40.307 96.9102 40.1372 96.9102 39.963V36.5422H99.1312V43.7953ZM104.952 43.7953H107.262L104.714 36.5422H102.352L99.7997 43.7953H102.09L102.369 42.8373H104.682L104.952 43.7953ZM103.53 38.8002L104.255 41.313H102.794L103.53 38.8002ZM113.86 43.7953H108.364V36.5422H110.694V41.8683H113.86V43.7953ZM118.169 41.1127L120.771 36.5422H118.256L116.995 39.0136L115.745 36.5422H113.165L115.839 41.1127V43.7953H118.169V41.1127ZM127.704 38.4497H125.655V43.7953H123.325V38.4497H121.237V36.5422H127.704V38.4497ZM128.538 43.7953H130.911V36.5422H128.538V43.7953ZM145.929 40.5378C145.781 40.2678 145.544 40.0261 145.222 39.8105C144.989 39.656 144.695 39.5318 144.335 39.436C143.987 39.3446 143.586 39.2401 143.136 39.1247C143.046 39.1013 142.962 39.0792 142.884 39.0584C142.808 39.0384 142.738 39.0198 142.672 39.0027C142.535 38.9722 142.424 38.9309 142.332 38.8808C142.243 38.835 142.175 38.7806 142.127 38.7196C142.08 38.6609 142.056 38.5825 142.056 38.4888C142.056 38.16 142.302 37.9924 142.794 37.9924C143.349 37.9924 143.665 38.2058 143.728 38.6282H145.938C145.873 37.8944 145.574 37.3304 145.041 36.9385C144.514 36.5465 143.776 36.3484 142.835 36.3484C142.352 36.3484 141.921 36.4028 141.544 36.5117C141.167 36.6184 140.849 36.773 140.586 36.9733C140.327 37.1758 140.126 37.4197 139.989 37.7049C139.856 37.9902 139.791 38.3081 139.791 38.6587C139.791 39.3772 140.07 39.9368 140.627 40.3331C140.782 40.4398 141.023 40.5487 141.35 40.6598C141.675 40.773 142.093 40.8949 142.598 41.0278C142.813 41.0844 143.003 41.1323 143.164 41.1715C143.327 41.2128 143.458 41.2564 143.562 41.3043C143.667 41.35 143.743 41.4088 143.798 41.4763C143.852 41.5438 143.878 41.6331 143.878 41.7485C143.878 41.9031 143.804 42.0272 143.654 42.1252C143.499 42.2232 143.286 42.2733 143.003 42.2733C142.681 42.2733 142.434 42.2166 142.271 42.1056C142.103 41.9967 141.995 41.8051 141.931 41.5373H139.663C139.734 42.3103 140.05 42.9134 140.601 43.3468C141.152 43.7801 141.918 44 142.9 44C143.965 44 144.773 43.7801 145.324 43.3468C145.875 42.9134 146.149 42.2994 146.149 41.5068C146.149 41.1301 146.075 40.8057 145.929 40.5378Z" fill="#FD4A5C"/>
<path d="M32.1307 30.4845H25.141V10.9417H32.1307V30.4845Z" fill="white"/>
<path d="M20.0871 30.4845H13.0974V22.9156H20.0871V30.4845Z" fill="white"/>
<path d="M20.0871 7.56886H13.0974V0H20.0871V7.56886Z" fill="white"/>
<path d="M0.995117 0.124146H7.98478V19.6669H0.995117V0.124146Z" fill="white"/>
<path d="M12.1089 15.2205C12.1089 12.7425 14.1187 10.7349 16.5945 10.7349C19.0746 10.7349 21.0822 12.7425 21.0822 15.2205C21.0822 17.6984 19.0746 19.706 16.5945 19.706C14.1187 19.706 12.1089 17.6984 12.1089 15.2205Z" fill="#FD4A5C"/>
<path d="M24.1481 4.60972C24.1481 2.13177 26.1579 0.124146 28.6358 0.124146C31.116 0.124146 33.1258 2.13177 33.1258 4.60972C33.1258 7.08768 31.116 9.0953 28.6358 9.0953C26.1579 9.0953 24.1481 7.08768 24.1481 4.60972Z" fill="#FD4A5C"/>
<path d="M8.97768 25.9989C8.97768 28.4769 6.96788 30.4845 4.48993 30.4845C2.0098 30.4845 0 28.4769 0 25.9989C0 23.521 2.0098 21.5134 4.48993 21.5134C6.96788 21.5134 8.97768 23.521 8.97768 25.9989Z" fill="#FD4A5C"/>
</svg>
