<svg width="38" height="33" viewBox="0 0 38 33" fill="none" xmlns="http://www.w3.org/2000/svg">
<rect x="38" y="25" width="8" height="38" rx="4" transform="rotate(90 38 25)" fill="#E14C5D"/>
<path d="M22.875 11C22.8385 12.2396 22.4193 13.2786 21.6172 14.1172C20.7786 14.9193 19.7396 15.3385 18.5 15.375C17.2604 15.3385 16.2214 14.9193 15.3828 14.1172C14.5807 13.2786 14.1615 12.2396 14.125 11C14.1615 9.76042 14.5807 8.72135 15.3828 7.88281C16.2214 7.08073 17.2604 6.66146 18.5 6.625C19.7396 6.66146 20.7786 7.08073 21.6172 7.88281C22.4193 8.72135 22.8385 9.76042 22.875 11ZM18.5 9.25C17.9896 9.25 17.5703 9.41406 17.2422 9.74219C16.9141 10.0703 16.75 10.4896 16.75 11C16.75 11.5104 16.9141 11.9297 17.2422 12.2578C17.5703 12.5859 17.9896 12.75 18.5 12.75C19.0104 12.75 19.4297 12.5859 19.7578 12.2578C20.0859 11.9297 20.25 11.5104 20.25 11C20.25 10.4896 20.0859 10.0703 19.7578 9.74219C19.4297 9.41406 19.0104 9.25 18.5 9.25ZM29 11C28.9271 12.6406 28.3438 14.5365 27.25 16.6875C26.1198 18.8385 24.8438 20.9167 23.4219 22.9219C22 24.9635 20.7969 26.5859 19.8125 27.7891C19.4479 28.2266 19.0104 28.4453 18.5 28.4453C17.9896 28.4453 17.5521 28.2266 17.1875 27.7891C16.2031 26.5859 14.9818 24.9635 13.5234 22.9219C12.1016 20.9167 10.8438 18.8385 9.75 16.6875C8.65625 14.5365 8.07292 12.6406 8 11C8.07292 8.01042 9.09375 5.53125 11.0625 3.5625C13.0312 1.59375 15.5104 0.572917 18.5 0.5C21.4896 0.572917 23.9688 1.59375 25.9375 3.5625C27.9062 5.53125 28.9271 8.01042 29 11ZM18.5 3.125C16.276 3.19792 14.4167 3.96354 12.9219 5.42188C11.4635 6.91667 10.6979 8.77604 10.625 11C10.625 11.6927 10.8984 12.7318 11.4453 14.1172C12.0651 15.5026 12.849 16.9609 13.7969 18.4922C14.5625 19.7682 15.3646 20.9714 16.2031 22.1016C17.0417 23.2682 17.8073 24.3073 18.5 25.2188C19.1927 24.3073 19.9583 23.2865 20.7969 22.1562C21.6354 20.9896 22.4375 19.7682 23.2031 18.4922C24.151 16.9609 24.9349 15.5026 25.5547 14.1172C26.1016 12.7318 26.375 11.6927 26.375 11C26.3021 8.77604 25.5365 6.91667 24.0781 5.42188C22.5833 3.96354 20.724 3.19792 18.5 3.125Z" fill="white"/>
</svg>
