<svg width="34" height="31" viewBox="0 0 34 31" fill="none" xmlns="http://www.w3.org/2000/svg">
<path d="M32.1307 30.4845H25.141V10.9417H32.1307V30.4845Z" fill="white"/>
<path d="M20.0871 30.4845H13.0974V22.9156H20.0871V30.4845Z" fill="white"/>
<path d="M20.0871 7.56886H13.0974V0H20.0871V7.56886Z" fill="white"/>
<path d="M0.995087 0.124146H7.98474V19.6669H0.995087V0.124146Z" fill="white"/>
<path d="M12.1089 15.2205C12.1089 12.7425 14.1187 10.7349 16.5944 10.7349C19.0746 10.7349 21.0822 12.7425 21.0822 15.2205C21.0822 17.6984 19.0746 19.706 16.5944 19.706C14.1187 19.706 12.1089 17.6984 12.1089 15.2205Z" fill="#FD4A5C"/>
<path d="M24.1481 4.60972C24.1481 2.13177 26.1579 0.124146 28.6358 0.124146C31.116 0.124146 33.1258 2.13177 33.1258 4.60972C33.1258 7.08768 31.116 9.0953 28.6358 9.0953C26.1579 9.0953 24.1481 7.08768 24.1481 4.60972Z" fill="#FD4A5C"/>
<path d="M8.97768 25.9989C8.97768 28.4769 6.96788 30.4845 4.48993 30.4845C2.0098 30.4845 0 28.4769 0 25.9989C0 23.521 2.0098 21.5134 4.48993 21.5134C6.96788 21.5134 8.97768 23.521 8.97768 25.9989Z" fill="#FD4A5C"/>
</svg>
